<svg xmlns="http://www.w3.org/2000/svg" xmlns:xlink="http://www.w3.org/1999/xlink" version="1.1" x="0px" y="0px" viewBox="0 0 30 30"> <style type="text/css">
   
    .str1 {stroke:hsla(0, 0%, 100%, 0.45);stroke-width:1.94488}
    .str0 {stroke:hsla(0, 0%, 100%, 0.45);stroke-width:1.94488;stroke-linecap:round;stroke-linejoin:round}
    .fil0 {fill:hsla(0, 0%, 100%, 0.45)}
    </style>
<path d="M 15 3 C 8.373 3 3 8.373 3 15 C 3 21.627 8.373 27 15 27 C 21.627 27 27 21.627 27 15 C 27 8.373 21.627 3 15 3 z M 9.7363281 9.0507812 C 9.835 9.0688437 9.9305781 9.1092813 10.017578 9.1757812 C 10.989578 9.9187813 12.063187 10.375031 12.617188 10.582031 C 13.362187 10.339031 14.162 10.199219 15 10.199219 C 15.838 10.199219 16.637812 10.339031 17.382812 10.582031 C 17.936812 10.374031 19.010422 9.9177812 19.982422 9.1757812 C 20.330422 8.9097812 20.835281 9.0470312 20.988281 9.4570312 C 21.428281 10.636031 22 12.954 22 16.5 C 22 19.979 18.865 22.800781 15 22.800781 C 11.135 22.800781 8 19.979 8 16.5 C 8 12.954 8.5717187 10.636031 9.0117188 9.4570312 C 9.1264688 9.1495312 9.4403125 8.9965938 9.7363281 9.0507812 z M 12 14 A 2 2 0 0 0 10 16 A 2 2 0 0 0 12 18 A 2 2 0 0 0 14 16 A 2 2 0 0 0 12 14 z M 18 14 A 2 2 0 0 0 16 16 A 2 2 0 0 0 18 18 A 2 2 0 0 0 20 16 A 2 2 0 0 0 18 14 z M 14 18 C 14 18.552 14.448 19 15 19 C 15.552 19 16 18.552 16 18 L 14 18 z"/><path  fill="silver" d="M 15 3 C 8.373 3 3 8.373 3 15 C 3 21.627 8.373 27 15 27 C 21.627 27 27 21.627 27 15 C 27 8.373 21.627 3 15 3 z M 9.7363281 9.0507812 C 9.835 9.0688437 9.9305781 9.1092813 10.017578 9.1757812 C 10.989578 9.9187813 12.063187 10.375031 12.617188 10.582031 C 13.362187 10.339031 14.162 10.199219 15 10.199219 C 15.838 10.199219 16.637812 10.339031 17.382812 10.582031 C 17.936812 10.374031 19.010422 9.9177812 19.982422 9.1757812 C 20.330422 8.9097812 20.835281 9.0470312 20.988281 9.4570312 C 21.428281 10.636031 22 12.954 22 16.5 C 22 19.979 18.865 22.800781 15 22.800781 C 11.135 22.800781 8 19.979 8 16.5 C 8 12.954 8.5717187 10.636031 9.0117188 9.4570312 C 9.1264688 9.1495312 9.4403125 8.9965938 9.7363281 9.0507812 z M 12 14 A 2 2 0 0 0 10 16 A 2 2 0 0 0 12 18 A 2 2 0 0 0 14 16 A 2 2 0 0 0 12 14 z M 18 14 A 2 2 0 0 0 16 16 A 2 2 0 0 0 18 18 A 2 2 0 0 0 20 16 A 2 2 0 0 0 18 14 z M 14 18 C 14 18.552 14.448 19 15 19 C 15.552 19 16 18.552 16 18 L 14 18 z"/></svg>