<svg xmlns="http://www.w3.org/2000/svg" width="90" height="101" viewBox="0 0 90 101">
                <g id="Polygon_1" data-name="Polygon 1" fill="#707070">
                  <path d="M 56.11319351196289 100.5 L 55.61316299438477 100.5 L 33.88680267333984 100.5 C 30.11680221557617 100.5 26.57516288757324 99.58280944824219 23.36026191711426 97.77391052246094 C 20.3519229888916 96.08122253417969 17.7562427520752 93.63764953613281 15.85384273529053 90.70736694335938 C 13.95144271850586 87.77709197998047 12.77578258514404 84.41162109375 12.45394229888916 80.97479248046875 C 12.1100025177002 77.302001953125 12.71357250213623 73.69364929199219 14.24788284301758 70.24999237060547 L 25.3610725402832 45.30705261230469 C 27.15573310852051 41.27902984619141 30.01387214660645 37.97227096557617 33.62650299072266 35.74425888061523 C 37.00738143920898 33.6591796875 40.94027328491211 32.55706024169922 44.99999237060547 32.55706024169922 C 49.05971145629883 32.55706024169922 52.99260330200195 33.6591796875 56.37348175048828 35.74425888061523 C 59.98611068725586 37.97227096557617 62.84425354003906 41.27902984619141 64.638916015625 45.30705261230469 L 75.75211334228516 70.24999237060547 C 77.28629302978516 73.69338226318359 77.88973236083984 77.30155944824219 77.54566955566406 80.97430419921875 C 77.22370910644531 84.41104125976563 76.04796600341797 87.77651214599609 74.14551544189453 90.70686340332031 C 72.2430419921875 93.63725280761719 69.64736175537109 96.08094024658203 66.63908386230469 97.77372741699219 C 63.42426300048828 99.58274841308594 59.88284301757813 100.5 56.11320114135742 100.5 L 56.11319351196289 100.5 Z" stroke="none"/>
                  <path d="M 44.99999237060547 33.05705261230469 C 41.03302383422852 33.05705261230469 37.19089126586914 34.13343048095703 33.88895797729492 36.16983032226563 C 32.17110443115234 37.22927856445313 30.62381362915039 38.53661346435547 29.29006958007813 40.05553436279297 C 27.88668060302734 41.65375518798828 26.71843719482422 43.48908996582031 25.81777954101563 45.51053619384766 L 14.70458984375 70.45347595214844 C 13.20567321777344 73.8177490234375 12.61592864990234 77.34194946289063 12.95175933837891 80.92817687988281 C 13.26610565185547 84.28488922119141 14.41463470458984 87.57233428955078 16.27321624755859 90.43511199951172 C 18.13179016113281 93.29788970947266 20.667236328125 95.68492126464844 23.60544586181641 97.33815765380859 C 26.74458312988281 99.10442352294922 30.2037239074707 100 33.88680267333984 100 L 56.11320495605469 100 C 59.79590606689453 100 63.25482559204102 99.1043701171875 66.39386749267578 97.33798980712891 C 69.33202362060547 95.68465423583984 71.86747741699219 93.29750061035156 73.72613525390625 90.43460083007813 C 75.58476257324219 87.57174682617188 76.73339080810547 84.28428649902344 77.0478515625 80.92766571044922 C 77.38380432128906 77.34147644042969 76.794189453125 73.81745910644531 75.29539489746094 70.45347595214844 L 64.18220520019531 45.51053619384766 C 63.28154754638672 43.48908996582031 62.11330413818359 41.65375518798828 60.70991516113281 40.05553436279297 C 59.37616729736328 38.53661346435547 57.82888031005859 37.22927856445313 56.11102676391602 36.16983032226563 C 52.8090934753418 34.13343048095703 48.96696090698242 33.05705261230469 44.99999237060547 33.05705261230469 M 44.99999237060547 32.05705261230469 C 53.11021423339844 32.05705261230469 61.22043609619141 36.40589141845703 65.09563446044922 45.10355377197266 L 76.20882415771484 70.04650115966797 C 82.69125366210938 84.59595489501953 72.04079437255859 101 56.11320877075195 101 C 56.11223602294922 101 56.11416625976563 101 56.11319351196289 101 L 33.88680267333984 101 C 17.95759582519531 101.0000152587891 7.308334350585938 84.59684753417969 13.79116058349609 70.04650115966797 L 24.90435028076172 45.10355377197266 C 28.77954864501953 36.40589141845703 36.8897705078125 32.05705261230469 44.99999237060547 32.05705261230469 Z" stroke="none" fill="#707070"/>
                </g>
              </svg>
              