<svg xmlns="http://www.w3.org/2000/svg" xmlns:xlink="http://www.w3.org/1999/xlink" version="1.1" x="0px" y="0px" viewBox="0 0 100 125" enable-background="new 0 0 100 100" xml:space="preserve"><g><path fill="#000000" d="M71,60.495H55.45c-0.548,0-1.032,0.283-1.294,0.758c-0.27,0.489-0.249,1.093,0.055,1.576   c0.702,1.115,0.925,2.459,0.629,3.783c-0.408,1.829-1.916,3.317-3.752,3.705c-0.362,0.076-0.728,0.115-1.088,0.115   c-2.74,0-4.969-2.229-4.969-4.969c0-0.958,0.273-1.887,0.792-2.687c0.292-0.453,0.312-1.009,0.051-1.488   c-0.266-0.489-0.775-0.793-1.329-0.793H29c-0.827,0-1.5,0.673-1.5,1.5v20c0,0.827,0.673,1.5,1.5,1.5h42c0.827,0,1.5-0.673,1.5-1.5   v-20C72.5,61.167,71.827,60.495,71,60.495z M71.5,81.995c0,0.276-0.224,0.5-0.5,0.5H29c-0.276,0-0.5-0.224-0.5-0.5v-20   c0-0.276,0.224-0.5,0.5-0.5h15.545c0.19,0,0.358,0.101,0.451,0.271c0.04,0.073,0.118,0.265-0.013,0.467   c-0.623,0.963-0.952,2.08-0.952,3.23c0,3.291,2.678,5.969,5.969,5.969c0.429,0,0.865-0.046,1.294-0.137   c2.213-0.467,4.03-2.262,4.521-4.466c0.354-1.583,0.084-3.193-0.758-4.533c-0.112-0.178-0.122-0.387-0.026-0.561   c0.05-0.09,0.17-0.241,0.418-0.241H71c0.276,0,0.5,0.224,0.5,0.5V81.995z"/><path fill="#000000" d="M57.406,31.738c0-4.041-3.288-7.328-7.328-7.328s-7.328,3.288-7.328,7.328s3.288,7.328,7.328,7.328   S57.406,35.779,57.406,31.738z M50.078,38.066c-3.489,0-6.328-2.839-6.328-6.328s2.839-6.328,6.328-6.328s6.328,2.839,6.328,6.328   S53.567,38.066,50.078,38.066z"/><path fill="#000000" d="M46.431,41.79v0.523c0,0.276,0.224,0.5,0.5,0.5s0.5-0.224,0.5-0.5V41.54   c0.001-0.006,0.006-0.01,0.007-0.016c0.036-0.232-0.096-0.452-0.312-0.538c0,0,0,0,0,0c-0.01-0.004-0.018-0.012-0.029-0.015   c-4.021-1.297-6.722-5.007-6.722-9.231c0-5.35,4.353-9.703,9.703-9.703s9.703,4.353,9.703,9.703c0,4.224-2.702,7.934-6.722,9.231   c-0.011,0.003-0.018,0.011-0.028,0.015c-0.001,0-0.002,0.001-0.003,0.002c-0.214,0.087-0.346,0.306-0.31,0.537   c0.001,0.007,0.005,0.012,0.006,0.018v0.771c0,0.276,0.224,0.5,0.5,0.5s0.5-0.224,0.5-0.5v-0.522   c4.235-1.533,7.057-5.521,7.057-10.052c0-5.902-4.801-10.703-10.703-10.703s-10.703,4.801-10.703,10.703   C39.375,36.27,42.197,40.257,46.431,41.79z"/><path fill="#000000" d="M30.2,38.566V24.91c0-0.276-0.224-0.5-0.5-0.5H16.043c-0.276,0-0.5,0.224-0.5,0.5v13.656   c0,0.276,0.224,0.5,0.5,0.5H29.7C29.976,39.066,30.2,38.843,30.2,38.566z M29.2,38.066H16.543V25.41H29.2V38.066z"/><path fill="#000000" d="M85.77,39.569c0.276,0,0.5-0.224,0.5-0.5c0-0.139-0.056-0.264-0.147-0.354l-8.405-14.558   c-0.179-0.31-0.688-0.31-0.866,0l-8.465,14.663c-0.089,0.155-0.089,0.345,0,0.5s0.254,0.25,0.433,0.25H85.75   C85.757,39.568,85.763,39.569,85.77,39.569z M69.686,38.569l7.599-13.163l7.599,13.163H69.686z"/><path fill="#000000" d="M91.6,41.782L77.718,17.738c-0.179-0.31-0.688-0.31-0.866,0L62.969,41.782c-0.089,0.155-0.089,0.345,0,0.5   s0.254,0.25,0.433,0.25h10.079v0.367c0,0.276,0.224,0.5,0.5,0.5s0.5-0.224,0.5-0.5v-0.867c0-0.276-0.224-0.5-0.5-0.5h-9.713   l13.016-22.544L90.3,41.532H80.275c0,0,0,0,0,0s0,0,0,0c-0.276,0-0.5,0.224-0.5,0.5v0.867c0,0.276,0.224,0.5,0.5,0.5   s0.5-0.224,0.5-0.5v-0.367h10.392c0.179,0,0.344-0.095,0.433-0.25S91.689,41.937,91.6,41.782z"/><path fill="#000000" d="M46.098,46.189c0.049,0.051,0.114,0.076,0.179,0.076c0.063,0,0.125-0.023,0.173-0.07   c0.196-0.189,0.406-0.363,0.625-0.517c0.066-0.047,0.106-0.123,0.106-0.204l0-0.851c0-0.138-0.112-0.25-0.25-0.25   s-0.25,0.112-0.25,0.25l0,0.723c-0.202,0.149-0.396,0.313-0.579,0.49C46.004,45.932,46.002,46.09,46.098,46.189z"/><path fill="#000000" d="M44.631,50.493c-0.136,0.02-0.23,0.147-0.211,0.283c0.087,0.599,0.269,1.176,0.539,1.716   c0.044,0.087,0.132,0.138,0.223,0.138c0.038,0,0.076-0.008,0.111-0.026c0.124-0.062,0.173-0.211,0.112-0.334   c-0.247-0.493-0.412-1.02-0.491-1.566C44.894,50.567,44.765,50.477,44.631,50.493z"/><path fill="#000000" d="M45.358,47.171c-0.122-0.065-0.272-0.018-0.337,0.104c-0.284,0.534-0.479,1.107-0.581,1.703   c-0.023,0.136,0.068,0.265,0.204,0.288c0.014,0.002,0.028,0.003,0.042,0.003c0.119,0,0.225-0.086,0.246-0.208   c0.092-0.544,0.271-1.066,0.529-1.554C45.527,47.386,45.48,47.235,45.358,47.171z"/><path fill="#000000" d="M55.475,49.305c0.014,0,0.027-0.001,0.041-0.003c0.136-0.022,0.229-0.15,0.206-0.286   c-0.097-0.596-0.289-1.17-0.568-1.707c-0.064-0.123-0.215-0.169-0.336-0.106c-0.122,0.063-0.169,0.214-0.106,0.336   c0.255,0.49,0.43,1.014,0.519,1.557C55.249,49.218,55.354,49.305,55.475,49.305z"/><path fill="#000000" d="M46.005,53.956c0.424,0.43,0.911,0.79,1.447,1.067c0.037,0.019,0.076,0.028,0.115,0.028   c0.09,0,0.177-0.049,0.222-0.135c0.063-0.122,0.016-0.273-0.107-0.336c-0.489-0.253-0.933-0.581-1.321-0.975   c-0.097-0.098-0.255-0.099-0.353-0.002S45.908,53.857,46.005,53.956z"/><path fill="#000000" d="M54.958,52.663c0.091,0,0.178-0.05,0.223-0.137c0.273-0.539,0.458-1.115,0.55-1.713   c0.021-0.136-0.073-0.263-0.209-0.284c-0.131-0.017-0.263,0.073-0.284,0.209c-0.083,0.545-0.252,1.071-0.502,1.563   c-0.062,0.123-0.013,0.273,0.11,0.335C54.881,52.654,54.92,52.663,54.958,52.663z"/><path fill="#000000" d="M49.239,55.094c-0.131-0.027-0.264,0.071-0.286,0.207c-0.022,0.136,0.07,0.264,0.207,0.286   c0.3,0.048,0.609,0.073,0.918,0.074c0.295,0,0.591-0.023,0.88-0.067c0.136-0.021,0.229-0.148,0.208-0.285   c-0.021-0.136-0.152-0.232-0.285-0.208C50.341,55.184,49.775,55.18,49.239,55.094z"/><path fill="#000000" d="M52.557,55.067c0.038,0,0.077-0.009,0.113-0.027c0.538-0.274,1.027-0.63,1.455-1.058   c0.097-0.098,0.097-0.255,0-0.353c-0.098-0.097-0.255-0.097-0.353,0c-0.39,0.391-0.836,0.716-1.328,0.966   c-0.123,0.063-0.171,0.212-0.109,0.335C52.379,55.018,52.466,55.067,52.557,55.067z"/><path fill="#000000" d="M53.225,44.374c-0.138,0-0.25,0.112-0.25,0.25v0.851c0,0.081,0.04,0.157,0.106,0.204   c0.219,0.154,0.429,0.328,0.625,0.517c0.048,0.047,0.111,0.07,0.173,0.07c0.065,0,0.13-0.025,0.179-0.076   c0.096-0.099,0.093-0.257-0.006-0.353c-0.183-0.177-0.377-0.341-0.579-0.49v-0.723C53.474,44.485,53.362,44.374,53.225,44.374z"/><path fill="#000000" d="M18.891,46.189c0.049,0.051,0.114,0.076,0.179,0.076c0.063,0,0.125-0.023,0.173-0.07   c0.196-0.189,0.406-0.363,0.625-0.517c0.066-0.047,0.106-0.123,0.106-0.204l0-0.851c0-0.138-0.112-0.25-0.25-0.25   s-0.25,0.112-0.25,0.25l0,0.723c-0.202,0.149-0.396,0.313-0.579,0.49C18.798,45.932,18.795,46.09,18.891,46.189z"/><path fill="#000000" d="M26.565,53.629c-0.39,0.391-0.836,0.716-1.328,0.966c-0.123,0.063-0.171,0.212-0.109,0.335   c0.044,0.086,0.131,0.136,0.222,0.136c0.038,0,0.077-0.009,0.113-0.027c0.538-0.274,1.027-0.63,1.455-1.058   c0.097-0.098,0.097-0.255,0-0.353C26.82,53.532,26.663,53.532,26.565,53.629z"/><path fill="#000000" d="M28.022,49.096c0.02,0.123,0.125,0.209,0.246,0.209c0.014,0,0.027-0.001,0.041-0.003   c0.136-0.022,0.229-0.15,0.206-0.286c-0.097-0.596-0.289-1.17-0.568-1.708c-0.063-0.123-0.216-0.168-0.336-0.106   c-0.122,0.063-0.169,0.214-0.106,0.336C27.759,48.029,27.934,48.553,28.022,49.096z"/><path fill="#000000" d="M28.315,50.529c-0.135-0.017-0.263,0.073-0.284,0.209c-0.083,0.545-0.252,1.071-0.502,1.563   c-0.062,0.123-0.013,0.273,0.11,0.335c0.036,0.018,0.075,0.027,0.113,0.027c0.091,0,0.178-0.05,0.223-0.137   c0.273-0.539,0.458-1.115,0.55-1.713C28.545,50.677,28.451,50.55,28.315,50.529z"/><path fill="#000000" d="M23.675,55.1c-0.541,0.084-1.107,0.081-1.643-0.005c-0.133-0.027-0.264,0.071-0.286,0.207   c-0.022,0.136,0.07,0.264,0.207,0.286c0.3,0.048,0.609,0.073,0.918,0.074c0.295,0,0.591-0.023,0.88-0.067   c0.136-0.021,0.229-0.148,0.208-0.285C23.939,55.172,23.806,55.076,23.675,55.1z"/><path fill="#000000" d="M17.708,50.704c-0.021-0.136-0.15-0.227-0.283-0.211c-0.136,0.02-0.23,0.147-0.211,0.283   c0.087,0.599,0.269,1.176,0.539,1.716c0.044,0.087,0.132,0.138,0.223,0.138c0.038,0,0.076-0.008,0.111-0.026   c0.124-0.062,0.173-0.211,0.112-0.334C17.952,51.776,17.787,51.25,17.708,50.704z"/><path fill="#000000" d="M19.154,53.605c-0.097-0.098-0.255-0.099-0.353-0.002s-0.099,0.255-0.002,0.353   c0.424,0.43,0.911,0.79,1.447,1.067c0.037,0.019,0.076,0.028,0.115,0.028c0.09,0,0.177-0.049,0.222-0.135   c0.063-0.122,0.016-0.273-0.107-0.336C19.986,54.326,19.542,53.999,19.154,53.605z"/><path fill="#000000" d="M17.815,47.274c-0.284,0.534-0.479,1.107-0.581,1.703c-0.023,0.136,0.068,0.265,0.204,0.288   c0.014,0.002,0.028,0.003,0.042,0.003c0.119,0,0.225-0.086,0.246-0.208c0.092-0.544,0.271-1.066,0.529-1.554   c0.065-0.122,0.019-0.272-0.104-0.337C18.031,47.105,17.879,47.153,17.815,47.274z"/><path fill="#000000" d="M26.019,44.374c-0.138,0-0.25,0.112-0.25,0.25v0.851c0,0.081,0.04,0.157,0.106,0.204   c0.219,0.155,0.429,0.329,0.625,0.518c0.048,0.047,0.111,0.07,0.173,0.07c0.065,0,0.13-0.025,0.179-0.076   c0.096-0.099,0.093-0.257-0.006-0.353c-0.182-0.176-0.376-0.341-0.578-0.49v-0.723C26.268,44.485,26.156,44.374,26.019,44.374z"/><path fill="#000000" d="M73.5,46.195c0.195-0.188,0.406-0.363,0.625-0.518c0.066-0.046,0.106-0.123,0.106-0.204v-0.851   c0-0.138-0.112-0.25-0.25-0.25s-0.25,0.112-0.25,0.25v0.723c-0.202,0.149-0.396,0.314-0.578,0.49   c-0.099,0.096-0.102,0.253-0.006,0.353c0.049,0.051,0.114,0.076,0.179,0.076C73.39,46.265,73.452,46.242,73.5,46.195z"/><path fill="#000000" d="M82.572,50.529c-0.135-0.017-0.263,0.073-0.284,0.209c-0.083,0.545-0.252,1.071-0.502,1.563   c-0.062,0.123-0.013,0.273,0.11,0.335c0.036,0.018,0.075,0.027,0.113,0.027c0.091,0,0.178-0.05,0.223-0.137   c0.273-0.539,0.458-1.115,0.55-1.713C82.802,50.677,82.708,50.55,82.572,50.529z"/><path fill="#000000" d="M80.822,53.629c-0.39,0.391-0.836,0.716-1.328,0.966c-0.123,0.063-0.171,0.212-0.109,0.335   c0.044,0.086,0.131,0.136,0.222,0.136c0.038,0,0.077-0.009,0.113-0.027c0.538-0.274,1.027-0.63,1.455-1.058   c0.097-0.098,0.097-0.255,0-0.353C81.077,53.532,80.919,53.532,80.822,53.629z"/><path fill="#000000" d="M77.932,55.1c-0.541,0.084-1.107,0.081-1.643-0.005c-0.131-0.027-0.264,0.071-0.286,0.207   c-0.022,0.136,0.07,0.264,0.207,0.286c0.3,0.048,0.609,0.073,0.918,0.074c0.295,0,0.591-0.023,0.88-0.067   c0.136-0.021,0.229-0.148,0.208-0.285C78.195,55.172,78.064,55.076,77.932,55.1z"/><path fill="#000000" d="M82.525,49.305c0.014,0,0.027-0.001,0.041-0.003c0.136-0.022,0.229-0.15,0.206-0.286   c-0.097-0.596-0.289-1.17-0.568-1.708c-0.063-0.123-0.215-0.168-0.336-0.106c-0.122,0.063-0.169,0.214-0.106,0.336   c0.255,0.49,0.43,1.014,0.519,1.557C82.299,49.218,82.405,49.305,82.525,49.305z"/><path fill="#000000" d="M72.072,47.274c-0.284,0.534-0.479,1.107-0.581,1.703c-0.023,0.136,0.068,0.265,0.204,0.288   c0.014,0.002,0.028,0.003,0.042,0.003c0.119,0,0.225-0.086,0.246-0.208c0.092-0.544,0.271-1.066,0.529-1.554   c0.065-0.122,0.019-0.272-0.104-0.337C72.288,47.105,72.136,47.153,72.072,47.274z"/><path fill="#000000" d="M72.232,52.63c0.038,0,0.076-0.008,0.111-0.026c0.124-0.062,0.173-0.211,0.112-0.334   c-0.247-0.493-0.412-1.02-0.491-1.566c-0.02-0.136-0.147-0.227-0.283-0.211c-0.136,0.02-0.23,0.147-0.211,0.283   c0.087,0.599,0.269,1.176,0.539,1.716C72.053,52.58,72.141,52.63,72.232,52.63z"/><path fill="#000000" d="M73.411,53.605c-0.097-0.098-0.255-0.099-0.353-0.002s-0.099,0.255-0.002,0.353   c0.424,0.43,0.911,0.79,1.447,1.067c0.037,0.019,0.076,0.028,0.115,0.028c0.09,0,0.177-0.049,0.222-0.135   c0.063-0.122,0.016-0.273-0.107-0.336C74.243,54.326,73.798,53.999,73.411,53.605z"/><path fill="#000000" d="M80.275,44.374c-0.138,0-0.25,0.112-0.25,0.25v0.851c0,0.081,0.04,0.157,0.106,0.204   c0.219,0.155,0.429,0.329,0.625,0.518c0.048,0.047,0.111,0.07,0.173,0.07c0.065,0,0.13-0.025,0.179-0.076   c0.096-0.099,0.093-0.257-0.006-0.353c-0.182-0.176-0.376-0.341-0.578-0.49v-0.723C80.525,44.485,80.413,44.374,80.275,44.374z"/><path fill="#000000" d="M19.225,42.761c0,0.276,0.224,0.5,0.5,0.5s0.5-0.224,0.5-0.5v-0.867c0-0.276-0.224-0.5-0.5-0.5h-6.509   V22.082h19.313v19.313h-6.509c-0.276,0-0.5,0.224-0.5,0.5v0.867c0,0.276,0.224,0.5,0.5,0.5s0.5-0.224,0.5-0.5v-0.367h6.509   c0.276,0,0.5-0.224,0.5-0.5V21.582c0-0.276-0.224-0.5-0.5-0.5H12.715c-0.276,0-0.5,0.224-0.5,0.5v20.313c0,0.276,0.224,0.5,0.5,0.5   h6.509V42.761z"/></g><text x="0" y="115" fill="#000000" font-size="5px" font-weight="bold" font-family="'Helvetica Neue', Helvetica, Arial-Unicode, Arial, Sans-serif">Created by Jolan Soens</text><text x="0" y="120" fill="#000000" font-size="5px" font-weight="bold" font-family="'Helvetica Neue', Helvetica, Arial-Unicode, Arial, Sans-serif">from the Noun Project</text></svg>