<svg xmlns="http://www.w3.org/2000/svg" xmlns:xlink="http://www.w3.org/1999/xlink" version="1.1" x="0px" y="0px" viewBox="0 0 96 120" enable-background="new 0 0 96 96" xml:space="preserve"><style type="text/css">
   
    .str1 {stroke:hsla(0, 0%, 100%, 0.45);stroke-width:1.54488}
    .str0 {stroke:hsla(0, 0%, 100%, 0.45);stroke-width:1.54488;stroke-linecap:round;stroke-linejoin:round}
    .fil0 {fill:none}
    </style><g><polygon  class="fil0 str1" points="79.706,47.25 79.706,48 79.706,48.75 90.5,48.75 90.5,48 90.5,47.25  "/><polygon  class="fil0 str1" points="14.984,48 14.984,47.25 5.5,47.25 5.5,48 5.5,48.75 14.984,48.75  "/><polygon  class="fil0 str1" points="47.24,80.343 47.24,90.492 47.99,90.492 48.74,90.492 48.74,80.343 47.99,80.343  "/><polygon  class="fil0 str1" points="48.74,15.657 48.74,5.509 47.99,5.509 47.24,5.509 47.24,15.657 47.99,15.657  "/><polygon  class="fil0 str1" points="70.534,70.544 70.004,71.075 77.52,78.59 78.05,78.06 78.58,77.53 71.064,70.014  "/><polygon  class="fil0 str1" points="24.801,24.811 25.332,24.281 18.479,17.411 17.948,17.94 17.417,18.47 24.27,25.341  "/><polygon  class="fil0 str1" points="24.27,70.66 17.417,77.53 17.948,78.06 18.479,78.59 25.332,71.72 24.801,71.19  "/><polygon  class="fil0 str1" points="71.064,25.985 78.58,18.471 78.05,17.94 77.52,17.41 70.004,24.924 70.534,25.455  "/><polygon  class="fil0 str1" points="60.072,77.762 59.377,78.044 63.284,87.67 63.979,87.388 64.673,87.106 60.767,77.48  "/><polygon  class="fil0 str1" points="35.751,17.801 36.446,17.519 32.713,8.331 32.019,8.613 31.324,8.896 35.056,18.083  "/><polygon  class="fil0 str1" points="17.443,60.396 17.162,59.701 8.337,63.277 8.619,63.972 8.901,64.667 17.725,61.091  "/><polygon  class="fil0 str1" points="77.423,36.075 77.705,36.77 87.659,32.724 87.377,32.029 87.095,31.334 77.141,35.38  "/><polygon  class="fil0 str1" points="34.607,77.733 30.751,86.852 31.442,87.144 32.133,87.436 35.989,78.317 35.298,78.025  "/><polygon  class="fil0 str1" points="61.199,18.721 65.245,9.148 64.554,8.856 63.863,8.564 59.817,18.137 60.508,18.429  "/><polygon  class="fil0 str1" points="17.634,35.167 17.926,34.476 9.14,30.763 8.848,31.454 8.556,32.145 17.342,35.858  "/><polygon  class="fil0 str1" points="77.248,60.362 76.956,61.053 86.86,65.238 87.152,64.547 87.444,63.856 77.54,59.671  "/><path class="fil0 str1" d="M70.417,64.93c1.638-2.223,2.932-4.657,3.868-7.267l0.013-0.002l0.139-0.406c0-0.002,0.001-0.004,0.002-0.006l0.417-1.222   l-0.04,0.008c0.474-1.618,0.81-3.268,0.99-4.93l0.063-0.655c0.001-0.01,0.002-0.021,0.003-0.031l0.068-0.815h-0.006   c0.034-0.51,0.06-1.055,0.06-1.604c0-15.796-12.851-28.647-28.647-28.647S18.698,32.204,18.698,48c0,2.707,0.417,5.403,1.194,8.041   l-0.056-0.01l0.411,1.204l0.143,0.418l0.012,0.002c0.918,2.56,2.178,4.954,3.771,7.144l-0.269-0.102l2.002,2.26   c0.003,0.003,0.006,0.007,0.009,0.01l0.123,0.139l0.016,0.006c1.687,1.877,3.614,3.507,5.729,4.88l-0.037,0.027l0.967,0.577   c0.001,0,0.002,0.001,0.004,0.002l0.427,0.254l0.015-0.011c4.335,2.483,9.226,3.805,14.186,3.805c4.975,0,9.878-1.33,14.226-3.829   l0.015,0.011l0.422-0.253c0.002-0.001,0.004-0.002,0.006-0.003l0.967-0.579l-0.037-0.027c2.082-1.356,3.98-2.96,5.642-4.803   l0.016-0.005l0.128-0.144c0.002-0.003,0.005-0.006,0.008-0.009l1.92-2.161L70.417,64.93z M66.055,67.629   c-1.339,1.276-2.806,2.414-4.384,3.396c-0.036-0.027-0.073-0.054-0.108-0.081c-0.104-0.078-0.208-0.156-0.315-0.234   c-0.076-0.055-0.157-0.109-0.235-0.164c-0.082-0.057-0.161-0.115-0.246-0.17c-0.086-0.057-0.179-0.111-0.27-0.166   c-0.083-0.05-0.163-0.103-0.249-0.151c-0.098-0.055-0.204-0.104-0.306-0.156c-0.088-0.044-0.172-0.091-0.265-0.133   c-0.113-0.051-0.237-0.094-0.358-0.14c-0.093-0.036-0.179-0.075-0.276-0.107c-0.133-0.043-0.279-0.077-0.42-0.114   c-0.098-0.025-0.189-0.056-0.292-0.078c-0.168-0.036-0.352-0.059-0.534-0.084c-0.091-0.012-0.173-0.031-0.267-0.041   c-0.284-0.029-0.584-0.045-0.903-0.045c-2.564,0-3.899,1.006-5.077,1.894c-1.134,0.854-2.113,1.592-4.176,1.592   c-0.515,0-0.963-0.046-1.362-0.129c-0.299-0.062-0.572-0.144-0.825-0.243c-0.76-0.296-1.348-0.74-1.985-1.221   c-0.736-0.555-1.533-1.156-2.652-1.529c-0.672-0.224-1.46-0.365-2.42-0.365c-0.32,0-0.622,0.016-0.906,0.045   c-0.1,0.01-0.187,0.031-0.283,0.044c-0.176,0.025-0.357,0.046-0.521,0.082c-0.106,0.023-0.2,0.055-0.301,0.082   c-0.139,0.036-0.283,0.069-0.413,0.112c-0.103,0.034-0.194,0.076-0.292,0.114c-0.115,0.044-0.235,0.085-0.344,0.135   c-0.098,0.044-0.186,0.094-0.278,0.141c-0.098,0.05-0.201,0.097-0.293,0.149c-0.091,0.051-0.174,0.107-0.261,0.16   c-0.085,0.053-0.175,0.104-0.257,0.159c-0.084,0.056-0.163,0.113-0.244,0.17c-0.078,0.055-0.16,0.109-0.236,0.165   c-0.073,0.054-0.143,0.107-0.215,0.16c-0.076,0.057-0.153,0.114-0.228,0.17c-1.592-0.989-3.073-2.134-4.425-3.423   c0.081,0.002,0.163,0.003,0.245,0.003c2.563,0,3.898-1.007,5.077-1.895c1.133-0.854,2.112-1.592,4.173-1.592   c2.059,0,3.037,0.738,4.169,1.592c1.177,0.889,2.512,1.896,5.076,1.896c2.564,0,3.9-1.007,5.079-1.895   c1.133-0.854,2.112-1.592,4.174-1.592c2.065,0,3.046,0.738,4.181,1.593c1.179,0.888,2.515,1.894,5.08,1.894   C65.943,67.63,65.999,67.63,66.055,67.629z M34.47,71.87c0.068-0.049,0.137-0.095,0.206-0.143c0.043-0.03,0.086-0.062,0.13-0.091   c0.132-0.088,0.267-0.172,0.405-0.251c0.029-0.017,0.06-0.031,0.089-0.048c0.11-0.061,0.223-0.12,0.34-0.174   c0.051-0.024,0.105-0.045,0.158-0.068c0.101-0.043,0.205-0.084,0.313-0.122c0.061-0.021,0.125-0.041,0.188-0.061   c0.109-0.033,0.223-0.063,0.339-0.09c0.067-0.016,0.135-0.032,0.206-0.045c0.13-0.025,0.267-0.044,0.408-0.061   c0.066-0.008,0.129-0.018,0.198-0.024c0.213-0.019,0.437-0.031,0.678-0.031c2.059,0,3.037,0.737,4.169,1.591   c1.177,0.888,2.512,1.895,5.076,1.895c2.564,0,3.9-1.006,5.079-1.895c1.133-0.854,2.112-1.592,4.174-1.592   c0.24,0,0.463,0.012,0.676,0.031c0.07,0.006,0.134,0.017,0.202,0.024c0.138,0.017,0.274,0.036,0.402,0.06   c0.072,0.014,0.141,0.029,0.209,0.045c0.116,0.026,0.229,0.056,0.337,0.089c0.064,0.02,0.128,0.039,0.189,0.06   c0.11,0.038,0.215,0.08,0.318,0.124c0.05,0.021,0.103,0.041,0.151,0.063c0.135,0.063,0.265,0.129,0.391,0.2   c0.012,0.007,0.025,0.013,0.038,0.02c0.14,0.08,0.274,0.165,0.408,0.253c0.043,0.028,0.086,0.059,0.129,0.088   c0.062,0.042,0.125,0.084,0.186,0.128c-0.001,0-0.001,0-0.002,0.001c-3.976,2.162-8.417,3.299-12.913,3.299   c-4.482,0-8.909-1.13-12.875-3.277C34.471,71.871,34.47,71.871,34.47,71.87z M47.346,20.853c14.969,0,27.147,12.178,27.147,27.147   c0,0.56-0.027,1.108-0.065,1.635c-2.104,0.168-3.296,1.065-4.359,1.866c-1.136,0.855-2.117,1.593-4.182,1.593   c-2.063,0-3.043-0.738-4.178-1.592c-1.179-0.888-2.516-1.895-5.083-1.895c-2.564,0-3.899,1.006-5.077,1.895   c-1.134,0.854-2.113,1.593-4.176,1.593c-2.061,0-3.04-0.738-4.172-1.593c-1.177-0.888-2.511-1.895-5.073-1.895   c-2.563,0-3.898,1.007-5.077,1.895c-1.133,0.854-2.112,1.592-4.173,1.592c-2.061,0-3.04-0.738-4.172-1.592   c-1.079-0.814-2.29-1.727-4.457-1.875c-0.034-0.542-0.05-1.084-0.05-1.627C20.198,33.031,32.376,20.853,47.346,20.853z    M23.802,52.7c1.178,0.888,2.513,1.895,5.076,1.895c2.563,0,3.898-1.007,5.077-1.895c1.133-0.854,2.112-1.592,4.173-1.592   c2.059,0,3.037,0.738,4.169,1.592c1.177,0.889,2.512,1.896,5.076,1.896c2.564,0,3.9-1.007,5.079-1.895   c1.133-0.854,2.112-1.592,4.174-1.592c2.065,0,3.046,0.738,4.181,1.593c1.179,0.888,2.515,1.894,5.08,1.894   c2.567,0,3.904-1.006,5.084-1.895c0.965-0.727,1.818-1.369,3.32-1.545c-0.206,1.762-0.588,3.51-1.14,5.213   c-0.14,0.037-0.257,0.089-0.388,0.133c-0.137,0.045-0.278,0.087-0.406,0.139c-0.193,0.078-0.372,0.165-0.547,0.254   c-0.107,0.055-0.222,0.106-0.323,0.164c-0.186,0.106-0.356,0.217-0.526,0.33c-0.075,0.05-0.156,0.098-0.229,0.148   c-0.23,0.162-0.45,0.325-0.662,0.484c-1.137,0.854-2.119,1.591-4.184,1.591c-2.063,0-3.043-0.738-4.178-1.592   c-1.179-0.888-2.516-1.895-5.083-1.895c-2.564,0-3.899,1.006-5.077,1.894c-1.134,0.854-2.113,1.592-4.176,1.592   c-2.061,0-3.04-0.738-4.172-1.592c-1.177-0.888-2.511-1.894-5.073-1.894c-2.563,0-3.898,1.006-5.077,1.894   c-1.133,0.854-2.112,1.592-4.173,1.592c-2.063,0-3.044-0.737-4.181-1.59c-0.216-0.163-0.441-0.33-0.678-0.495   c-0.07-0.049-0.15-0.095-0.224-0.144c-0.176-0.117-0.354-0.232-0.548-0.342c-0.103-0.058-0.219-0.108-0.328-0.164   c-0.181-0.091-0.365-0.179-0.565-0.258c-0.131-0.051-0.277-0.093-0.417-0.138c-0.136-0.043-0.258-0.097-0.404-0.133   c-0.555-1.711-0.939-3.452-1.148-5.205C21.949,51.302,22.817,51.957,23.802,52.7z M22.331,58.254   c0.188,0.098,0.367,0.205,0.541,0.317c0.076,0.049,0.155,0.094,0.229,0.145c0.235,0.162,0.465,0.332,0.697,0.505   c1.18,0.886,2.518,1.891,5.081,1.891s3.898-1.006,5.077-1.894c1.133-0.854,2.112-1.592,4.173-1.592   c2.059,0,3.037,0.737,4.169,1.591c1.177,0.888,2.512,1.895,5.076,1.895c2.564,0,3.9-1.006,5.079-1.895   c1.133-0.854,2.112-1.592,4.174-1.592c2.065,0,3.046,0.738,4.181,1.593c1.179,0.888,2.515,1.894,5.08,1.894   c2.565,0,3.903-1.005,5.084-1.892c0.223-0.167,0.444-0.331,0.67-0.488c0.072-0.05,0.149-0.094,0.223-0.142   c0.163-0.106,0.33-0.21,0.505-0.304c0.031-0.017,0.065-0.029,0.096-0.045c-1.133,2.779-2.711,5.332-4.708,7.609   c-0.005,0.006-0.009,0.013-0.015,0.019c-0.169,0.053-0.351,0.081-0.528,0.118c-0.103,0.021-0.2,0.053-0.306,0.068   c-0.324,0.049-0.662,0.076-1.022,0.076c-2.063,0-3.043-0.738-4.178-1.592c-1.179-0.888-2.516-1.895-5.083-1.895   c-2.564,0-3.899,1.006-5.077,1.895c-1.134,0.854-2.113,1.593-4.176,1.593c-2.061,0-3.04-0.738-4.172-1.593   c-1.177-0.888-2.511-1.895-5.073-1.895c-2.563,0-3.898,1.007-5.077,1.895c-1.133,0.854-2.112,1.592-4.173,1.592   c-0.385,0-0.739-0.03-1.078-0.084c-0.114-0.019-0.219-0.056-0.33-0.081c-0.187-0.042-0.378-0.074-0.558-0.136   c-0.005-0.006-0.01-0.013-0.016-0.019c-1.989-2.281-3.563-4.835-4.689-7.613C22.248,58.217,22.292,58.234,22.331,58.254z"/></g></svg>