<svg xmlns="http://www.w3.org/2000/svg" xmlns:xlink="http://www.w3.org/1999/xlink" xml:space="preserve" version="1.1" style="shape-rendering:geometricPrecision;text-rendering:geometricPrecision;image-rendering:optimizeQuality;" viewBox="0 0 60000 75000" x="0px" y="0px" fill-rule="evenodd" clip-rule="evenodd"><defs><style type="text/css">
   
    .str1 {stroke:hsla(0, 0%, 100%, 0.45);stroke-width:1.94488}
    .str0 {stroke:hsla(0, 0%, 100%, 0.45);stroke-width:1.94488;stroke-linecap:round;stroke-linejoin:round}
    .fil0 {fill:hsla(0, 0%, 100%, 0.45)}
    </style></defs><g><path class="fil0 str1" d="M26115 53662c18,-273 -605,-760 -1679,-1362l-476 1644c1226,87 2010,21 2137,-219l18 -64zm20980 -19070l-2967 -469c429,1125 983,1307 1611,1121 407,-121 872,-377 1356,-653zm-3857 -609l-92 -15 -13 -2c-438,-83 -816,-572 -970,-1150 -63,-237 -92,-493 -75,-741 19,-265 89,-525 225,-751 192,-319 501,-565 959,-659 -123,-259 -189,-516 -203,-756 -17,-297 44,-573 171,-805 133,-243 335,-435 592,-554 337,-155 763,-182 1243,-25l36 12 39 23c763,440 1434,1167 2103,1892 596,646 1191,1290 1801,1668 307,-637 759,-1064 1258,-1299 379,-179 784,-245 1174,-209 393,37 770,178 1088,414 244,181 454,417 609,704l1525 572c206,77 311,306 234,513 -31,83 -87,150 -156,195l0 0 -1402 913c-23,15 -48,27 -72,37 -222,1074 -657,2023 -1209,2798 -859,1206 -2012,1997 -3107,2186 -791,221 -1690,-16 -2591,-253 -856,-226 -1714,-451 -2317,-213l0 -1c-225,97 -470,302 -715,507 -642,537 -1285,1074 -2180,562 -268,-120 -492,-272 -674,-444 -356,-336 -561,-748 -646,-1148 -87,-409 -47,-815 88,-1124 54,-124 122,-234 203,-325 528,-692 1312,-540 2095,-388 307,60 613,119 860,109l0 0c341,-25 762,-203 1191,-398 -419,-311 -782,-889 -1072,-1844zm566 -2565c-16,2 -33,2 -49,2 -405,-8 -641,125 -757,317 -67,112 -103,248 -113,392 -11,161 8,328 50,485 80,301 218,545 345,569l0 0 4312 681c-352,-135 -701,-291 -1041,-465 -1022,-521 -1975,-1202 -2709,-1942 -13,-13 -25,-26 -38,-39zm5395 1664c-937,-362 -1733,-1224 -2532,-2090 -617,-668 -1235,-1338 -1873,-1719 -259,-78 -471,-69 -626,2 -99,46 -177,119 -227,210 -56,103 -83,232 -74,380 18,305 184,669 540,1029 673,679 1555,1307 2506,1792 805,410 1655,715 2465,856 17,-4 33,-8 50,-11l-2 -5c-55,-151 -134,-305 -228,-444zm-166 1406c-469,186 -947,459 -1409,723 -570,326 -1119,640 -1659,800 -26,8 -53,15 -79,22 362,502 782,523 1230,272 590,-330 1250,-1031 1917,-1817zm727 -1989c177,230 323,498 417,756 139,379 170,763 47,1030l-21 45 -34 41c-891,1082 -1801,2149 -2663,2631 -913,511 -1738,452 -2386,-668 -102,45 -204,92 -307,140 -555,255 -1111,510 -1638,549l-9 0c-346,17 -701,-52 -1057,-121 -543,-106 -1086,-211 -1314,94l-11 14 -19 20c-29,30 -53,70 -73,116 -72,165 -90,396 -38,642 54,256 185,518 411,732 126,119 281,224 466,304l25 11 19 11c420,247 852,-114 1284,-476 291,-244 583,-488 926,-633l8 -5c845,-334 1830,-74 2814,185 799,211 1597,421 2184,252l16 -5 29 -5c901,-147 1872,-823 2616,-1867 669,-939 1146,-2169 1216,-3575 -55,-476 -272,-833 -569,-1053 -201,-149 -438,-238 -685,-261 -251,-23 -514,20 -761,137 -350,165 -671,478 -894,957zm3696 426l236 -154 -224 -84 1 10 -1 28c-3,67 -7,133 -12,200zm-2021 -1125c143,0 272,58 366,152 94,94 152,223 152,366 0,143 -58,272 -152,366 -94,94 -223,152 -366,152 -143,0 -272,-58 -366,-152 -94,-94 -152,-223 -152,-366 0,-143 58,-272 152,-366 94,-94 223,-152 366,-152zm83 434c-21,-21 -51,-34 -83,-34 -32,0 -62,13 -83,34 -21,21 -34,51 -34,83 0,32 13,62 34,83 21,21 51,34 83,34 32,0 62,-13 83,-34 21,-21 34,-51 34,-83 0,-32 -13,-62 -34,-83zm-39337 3037c-53,-16 -82,-72 -66,-125 16,-53 72,-82 125,-66l3921 1203c53,16 82,72 66,125 -16,53 -72,82 -125,66l-3921 -1203zm1086 -214c-53,-16 -82,-72 -66,-125 16,-53 72,-82 125,-66l3921 1203c53,16 82,72 66,125 -16,53 -72,82 -125,66l-3921 -1203zm9875 1427c-53,-16 -82,-72 -66,-125 16,-53 72,-82 125,-66l3921 1203c53,16 82,72 66,125 -16,53 -72,82 -125,66l-3921 -1203zm1086 -214c-53,-16 -82,-72 -66,-125 16,-53 72,-82 125,-66l3921 1203c53,16 82,72 66,125 -16,53 -72,82 -125,66l-3921 -1203zm6410 12607l-1883 6206 2088 610 1878 -6191 -2084 -624zm-2361 6066l1884 -6209 -1668 -500 -1601 5617c-5,25 -10,50 -18,74 -6,21 -14,41 -22,61l-155 496 1580 461zm4922 -5298l-1877 6187 1133 331c9,2 19,4 28,7 215,64 383,73 497,18 109,-52 197,-180 265,-393l1490 -4705 0 0c64,-219 32,-477 -72,-699 -99,-213 -262,-385 -465,-446l-999 -299zm-4487 -2179l5693 1706c16,4 33,9 48,15 422,136 746,468 932,866 181,387 234,844 121,1246 -4,16 -8,31 -14,47l-1485 4690c-138,436 -367,721 -680,872 -307,148 -665,151 -1072,29 -8,-2 -15,-5 -23,-8l-5772 -1685 -512 1636c-221,736 -1646,967 -3773,744 -1949,-204 -4555,-750 -7355,-1590l0 0c-2801,-840 -5278,-1817 -7017,-2717 -1900,-984 -2965,-1960 -2744,-2696l926 -2952 1 -2c1,-3 2,-7 3,-10l2 -5c3,-9 6,-18 9,-27l3792 -11921c2,-7 4,-15 6,-22l1352 -4509c4,-16 8,-31 14,-46 753,-2482 2575,-4384 4916,-5453 1963,-896 4291,-1206 6654,-780 15,-63 30,-124 45,-183 36,-143 78,-293 125,-450l0 0c275,-918 643,-1720 1016,-2276 174,-259 356,-470 540,-624 -149,-138 -273,-300 -368,-477 -224,-415 -289,-915 -143,-1401 146,-487 476,-869 891,-1093 299,-161 643,-240 994,-217 577,-2234 898,-4601 985,-7060 95,-2685 -89,-5489 -524,-8358 -33,-218 118,-422 336,-455 218,-33 422,118 455,336 441,2909 627,5762 530,8505 -90,2532 -420,4965 -1014,7257 316,174 567,434 732,740 224,415 289,915 143,1401 -146,487 -476,869 -891,1093 -198,107 -415,177 -641,206 63,223 95,487 98,782 6,669 -128,1542 -403,2458l0 0c-42,139 -91,292 -149,456 -21,59 -41,117 -62,174 2177,946 3926,2473 5061,4283 1372,2188 1847,4788 1099,7281 -1,5 -3,10 -5,14l-1236 4436 1 0 -1637 5741zm-2967 7387c-21,-64 -26,-133 -12,-203 -652,128 -1552,131 -2632,18 -1948,-204 -4552,-750 -7350,-1588l0 0 -5 -2c-2801,-840 -5278,-1817 -7017,-2717 -1020,-529 -1800,-1055 -2269,-1543l-636 2029c-94,314 809,963 2344,1759 1696,879 4123,1835 6879,2661l0 0c2757,826 5309,1362 7208,1562 1721,180 2832,135 2926,-178l562 -1798zm282 -35837l-5 -1c-8,-2 -17,-5 -25,-8 -272,-77 -549,-39 -779,85 -235,126 -421,342 -504,618 -83,276 -46,560 81,795 126,235 342,421 618,504 276,83 560,46 795,-81 235,-126 421,-342 504,-618 83,-276 46,-560 -81,-795 -124,-231 -335,-415 -604,-499zm-1339 6399c17,-47 34,-93 50,-140 42,-121 88,-263 136,-425l0 0c253,-844 377,-1632 371,-2224 -4,-448 -48,-738 -132,-763 -85,-25 -282,192 -531,564 -330,491 -660,1217 -913,2060l0 0c-41,136 -79,276 -116,419 -14,53 -26,104 -38,154 185,46 369,97 554,152l1 0c209,63 415,131 618,203zm-6155 13305l-2838 9385c464,126 936,260 1414,404l0 0 0 0 4 1 0 0 0 0c480,144 950,292 1408,442l2796 -9396 -2787 -837zm-3069 10150l-906 2996c459,151 931,300 1412,444l0 0 5 2c483,145 959,280 1427,407l893 -3001c-457,-150 -925,-298 -1404,-441l0 0 -5 -2c-481,-144 -956,-280 -1422,-406zm-1380 2838l897 -2966c-910,-237 -1783,-438 -2600,-602l-810 2636c776,315 1619,628 2513,932zm1128 -3731l2842 -9401 -2503 -752 -2935 9549c819,165 1690,367 2596,604zm6586 -8276l-2801 9410c887,301 1727,612 2502,924l2813 -9579 -2515 -756zm-3029 10176l-884 2970c914,238 1791,440 2611,604l777 -2646c-773,-313 -1614,-626 -2504,-928zm-7661 707l781 -2540c-804,-150 -1547,-261 -2210,-330 -86,-9 -170,-17 -252,-25l-573 1834c79,42 160,85 243,128 588,305 1264,619 2012,933zm1017 -3308l2949 -9596 -2305 -692 -3100 9923c30,3 60,6 91,9 709,74 1505,194 2365,356zm12666 -6677l-2827 9626c807,337 1536,675 2168,1002 28,15 57,29 85,44l2890 -9976 -2316 -696zm-3053 10397l-749 2550c798,148 1536,258 2195,327 92,10 183,19 271,27l535 -1846c-73,-39 -148,-78 -224,-117 -593,-307 -1275,-623 -2029,-941zm-13331 -1717l510 -1633c-1282,-92 -2085,-18 -2165,246 -79,264 544,763 1654,1387zm753 -2411l3131 -10024 -1849 -555 -3393 10666c537,-117 1254,-144 2110,-86zm18424 -5430l-2919 10077c746,422 1328,838 1712,1230l3065 -10749 -1857 -558zm-15537 -10440l1916 574c768,-2261 2206,-4078 3944,-5210 498,-325 1021,-593 1560,-799 -1082,119 -2115,403 -3056,832 -2023,924 -3621,2523 -4365,4603zm2395 718l2357 707c730,-2251 1841,-4149 3071,-5422 621,-643 1275,-1129 1931,-1426 -1264,55 -2508,481 -3622,1206 -1643,1070 -3005,2791 -3737,4935zm2836 850l2459 737c688,-2234 1462,-4207 2170,-5618 425,-847 841,-1498 1221,-1898 -50,-12 -101,-23 -151,-34 -896,94 -1851,666 -2747,1593 -1179,1220 -2246,3046 -2952,5220zm2937 880l2547 763c646,-2218 1079,-4261 1261,-5800 136,-1155 150,-1998 22,-2371 -67,-22 -135,-43 -203,-63 -68,-20 -137,-40 -205,-59 -312,241 -764,952 -1285,1991 -695,1384 -1456,3328 -2137,5539zm3026 907l2459 737c606,-2204 719,-4316 405,-5983 -238,-1268 -721,-2270 -1418,-2842 -48,-19 -96,-37 -145,-55 97,543 87,1316 -24,2256 -185,1567 -624,3640 -1278,5887zm2937 880l2357 707c568,-2194 377,-4380 -406,-6177 -532,-1219 -1336,-2259 -2362,-3000 384,608 663,1374 828,2253 327,1741 211,3937 -417,6218zm2836 850l1916 574c522,-2147 68,-4361 -1113,-6245 -550,-876 -1256,-1682 -2095,-2376 337,469 627,982 865,1527 829,1902 1030,4210 428,6520zm1705 1345l-18910 -5668 -1129 3765 18980 5702 1058 -3800z"/></g></svg>