<svg height='100px' width='100px'  fill="hsla(0, 0%, 100%, 0.45)" xmlns="http://www.w3.org/2000/svg" xmlns:xlink="http://www.w3.org/1999/xlink" version="1.1" x="0px" y="0px" viewBox="0 0 100 100" enable-background="new 0 0 100 100" xml:space="preserve"><style type="text/css">
   
    .str1 {stroke:hsla(0, 0%, 100%, 0.45);stroke-width:1.04488}
    .str0 {stroke:hsla(0, 0%, 100%, 0.45);stroke-width:1.04488;stroke-linecap:round;stroke-linejoin:round}
    .fil0 {fill:none}
    </style><path fill="hsla(0, 0%, 100%, 0.45)" d="M75,70.833H6.25c-3.446,0-6.25,2.804-6.25,6.25V93.75C0,97.196,2.804,100,6.25,100H75  c3.446,0,6.25-2.804,6.25-6.25V77.083C81.25,73.637,78.446,70.833,75,70.833z M77.083,93.75c0,1.15-0.933,2.083-2.083,2.083H6.25  c-1.15,0-2.083-0.933-2.083-2.083V77.083C4.167,75.934,5.1,75,6.25,75H75c1.15,0,2.083,0.934,2.083,2.083V93.75z"></path><path fill="hsla(0, 0%, 100%, 0.45)" d="M6.25,29.167H75c3.446,0,6.25-2.803,6.25-6.25V6.25C81.25,2.804,78.446,0,75,0H6.25C2.804,0,0,2.804,0,6.25  v16.667C0,26.363,2.804,29.167,6.25,29.167z M4.167,6.25c0-1.149,0.933-2.083,2.083-2.083H75c1.15,0,2.083,0.934,2.083,2.083v16.667  C77.083,24.066,76.15,25,75,25H6.25c-1.15,0-2.083-0.934-2.083-2.083V6.25z"></path><path fill="hsla(0, 0%, 100%, 0.45)" d="M43.75,12.5h27.083c1.151,0,2.084-0.932,2.084-2.083c0-1.151-0.933-2.083-2.084-2.083H43.75  c-1.151,0-2.083,0.932-2.083,2.083C41.667,11.568,42.599,12.5,43.75,12.5z"></path><path fill="hsla(0, 0%, 100%, 0.45)" d="M43.75,20.833h27.083c1.151,0,2.084-0.932,2.084-2.083s-0.933-2.083-2.084-2.083H43.75  c-1.151,0-2.083,0.932-2.083,2.083S42.599,20.833,43.75,20.833z"></path><circle fill="hsla(0, 0%, 100%, 0.45)" cx="13.542" cy="9.375" r="3.125"></circle><path fill="hsla(0, 0%, 100%, 0.45)" d="M18.644,20.833h0.106v-1.042c0-2.876-2.332-5.208-5.208-5.208c-2.876,0-5.208,2.332-5.208,5.208v1.042h0.105  H18.644z"></path><path fill="hsla(0, 0%, 100%, 0.45)" d="M70.833,79.167H43.75c-1.151,0-2.083,0.932-2.083,2.083s0.932,2.083,2.083,2.083h27.083  c1.151,0,2.084-0.932,2.084-2.083S71.984,79.167,70.833,79.167z"></path><path fill="hsla(0, 0%, 100%, 0.45)" d="M70.833,87.5H43.75c-1.151,0-2.083,0.932-2.083,2.083s0.932,2.084,2.083,2.084h27.083  c1.151,0,2.084-0.933,2.084-2.084S71.984,87.5,70.833,87.5z"></path><circle fill="hsla(0, 0%, 100%, 0.45)" cx="14.236" cy="80.208" r="3.125"></circle><path fill="hsla(0, 0%, 100%, 0.45)" d="M14.236,85.417c-2.877,0-5.208,2.331-5.208,5.208v1.042h0.106h10.205h0.105v-1.042  C19.444,87.748,17.113,85.417,14.236,85.417z"></path><path fill="hsla(0, 0%, 100%, 0.45)" d="M43.75,52.165c1.036,0.119,2.683,0.443,4.167,1.188v-7.946c-1.196-0.985-3.008-1.404-4.167-1.559V52.165z"></path><path fill="hsla(0, 0%, 100%, 0.45)" d="M93.75,35.417H25c-3.453,0-6.25,2.797-6.25,6.25v16.667c0,3.453,2.797,6.25,6.25,6.25h68.75  c3.453,0,6.25-2.797,6.25-6.25V41.667C100,38.214,97.203,35.417,93.75,35.417z M32.292,41.667c1.726,0,3.125,1.4,3.125,3.125  c0,1.726-1.399,3.125-3.125,3.125c-1.725,0-3.125-1.399-3.125-3.125C29.167,43.066,30.566,41.667,32.292,41.667z M37.5,56.25h-0.106  H27.189h-0.105v-1.042c0-2.876,2.332-5.208,5.208-5.208c2.877,0,5.208,2.332,5.208,5.208V56.25z M56.25,53.125  c0,0.565-0.451,1.028-1.018,1.042c-3.651,0.089-5.466,1.812-5.544,1.885c-0.018,0.02-0.042,0.023-0.06,0.04  c-0.084,0.072-0.176,0.138-0.279,0.18c-0.049,0.021-0.101,0.02-0.151,0.031c-0.08,0.021-0.154,0.049-0.24,0.049  c-0.079,0-0.149-0.028-0.223-0.045c-0.058-0.012-0.117-0.012-0.173-0.035c-0.129-0.052-0.244-0.13-0.341-0.225  c-1.759-1.758-5.502-1.88-5.541-1.88c-0.563-0.017-1.015-0.478-1.015-1.042V42.708c0-0.281,0.114-0.549,0.313-0.745  c0.202-0.195,0.481-0.285,0.753-0.297c0.171,0.004,3.814,0.116,6.247,1.882c1.031-0.712,3.101-1.807,6.204-1.882  c0.302,0.006,0.551,0.102,0.753,0.297c0.199,0.195,0.313,0.464,0.313,0.745V53.125z M89.583,56.25H62.5  c-1.151,0-2.083-0.932-2.083-2.083s0.932-2.084,2.083-2.084h27.083c1.151,0,2.084,0.933,2.084,2.084S90.734,56.25,89.583,56.25z   M89.583,47.917H62.5c-1.151,0-2.083-0.932-2.083-2.083c0-1.152,0.932-2.083,2.083-2.083h27.083c1.151,0,2.084,0.932,2.084,2.083  C91.667,46.985,90.734,47.917,89.583,47.917z"></path><path fill="hsla(0, 0%, 100%, 0.45)" d="M50,53.365c0.985-0.513,2.362-1.038,4.167-1.22v-8.32c-2.211,0.263-3.589,1.117-4.167,1.552V53.365z"></path><path fill="hsla(0, 0%, 100%, 0.45)" d="M23.931,18.648c0.038,0,3.782,0.122,5.541,1.88c0.097,0.096,0.212,0.173,0.341,0.226  c0.057,0.022,0.115,0.022,0.173,0.035c0.073,0.016,0.144,0.045,0.223,0.045c0.085,0,0.16-0.029,0.24-0.049  c0.05-0.012,0.102-0.01,0.151-0.031c0.103-0.042,0.195-0.108,0.279-0.181c0.018-0.016,0.042-0.02,0.06-0.039  c0.079-0.073,1.894-1.796,5.545-1.886c0.565-0.015,1.017-0.476,1.017-1.042V7.19c0-0.281-0.114-0.549-0.313-0.745  c-0.202-0.195-0.452-0.291-0.752-0.297c-3.104,0.075-5.173,1.17-6.204,1.882c-2.433-1.766-6.076-1.878-6.247-1.882  c-0.271,0.012-0.551,0.102-0.753,0.297c-0.199,0.195-0.313,0.464-0.313,0.745v10.417C22.917,18.17,23.368,18.632,23.931,18.648z   M31.25,9.859c0.578-0.436,1.956-1.29,4.167-1.553v8.321c-1.804,0.181-3.182,0.706-4.167,1.219V9.859z M25,8.329  c1.158,0.155,2.97,0.574,4.167,1.559v7.947c-1.484-0.745-3.13-1.068-4.167-1.188V8.329z"></path><path fill="hsla(0, 0%, 100%, 0.45)" d="M36.434,77.083c-3.104,0.076-5.173,1.17-6.204,1.883c-2.433-1.766-6.076-1.878-6.247-1.883  c-0.271,0.013-0.551,0.103-0.753,0.298c-0.199,0.195-0.313,0.463-0.313,0.744v10.417c0,0.563,0.452,1.025,1.015,1.041  c0.038,0,3.782,0.122,5.541,1.88c0.097,0.096,0.212,0.174,0.341,0.226c0.057,0.022,0.115,0.022,0.173,0.035  c0.073,0.017,0.144,0.045,0.223,0.045c0.085,0,0.16-0.028,0.24-0.049c0.05-0.013,0.102-0.01,0.151-0.031  c0.103-0.042,0.195-0.107,0.279-0.181c0.018-0.016,0.042-0.021,0.06-0.039c0.079-0.073,1.894-1.796,5.545-1.886  c0.565-0.014,1.017-0.476,1.017-1.041V78.125c0-0.281-0.114-0.549-0.313-0.744C36.984,77.186,36.735,77.089,36.434,77.083z   M29.167,88.77c-1.484-0.744-3.13-1.068-4.167-1.188v-8.316c1.158,0.154,2.97,0.573,4.167,1.558V88.77z M35.417,87.562  c-1.804,0.182-3.182,0.707-4.167,1.219v-7.987c0.578-0.435,1.956-1.29,4.167-1.552V87.562z"></path></svg>