<svg xmlns="http://www.w3.org/2000/svg" xmlns:xlink="http://www.w3.org/1999/xlink" xml:space="preserve" version="1.1" style="shape-rendering:geometricPrecision;text-rendering:geometricPrecision;image-rendering:optimizeQuality;" viewBox="0 0 60000 75000" x="0px" y="0px" fill-rule="evenodd" clip-rule="evenodd"><defs><style type="text/css">

    .fil0 {fill:hsla(0, 0%, 100%, 0.45);stroke-width:1.04488;fill-rule:nonzero}
   
  </style></defs><g><path class="fil0" d="M43293 16565c33,-18 70,-32 110,-39 372,-66 772,-91 1184,-79 1025,-107 2074,-251 3159,-438 -197,-20 -385,-61 -587,-106 -127,-28 -261,-57 -384,-80 -236,25 -477,28 -722,16 -300,-14 -601,-52 -904,-103 -353,-59 -694,-131 -1034,-203 -1700,-361 -3401,-722 -4582,1179 140,-1 281,-2 421,-3 1099,-12 2206,-57 3338,-145zm-19416 17030c96,-75 234,-59 310,37 75,96 59,234 -37,310 -226,178 -394,415 -519,692 -131,290 -215,621 -269,972 -19,120 -131,202 -251,184 -120,-19 -202,-131 -184,-251 60,-390 155,-760 302,-1086 153,-339 363,-633 649,-858zm11809 2663c96,-75 234,-59 310,37 75,96 59,234 -37,310 -226,178 -394,415 -519,692 -131,290 -215,621 -269,972 -19,120 -131,202 -251,184 -120,-19 -202,-131 -184,-251 60,-390 155,-760 302,-1086 153,-339 363,-633 649,-858zm-993 18060c11,40 15,81 12,120 122,520 114,933 16,1265 -190,643 -681,968 -1248,1156l0 0c-500,179 -906,235 -1311,291 -726,100 -1452,201 -2805,1159 -32,26 -68,46 -109,60 -878,302 -2609,337 -3695,16 -371,-110 -682,-265 -887,-470 -257,-258 -354,-574 -222,-951 220,-630 1891,-1787 2549,-2321 1035,-841 1937,-1574 2662,-3650 184,-630 357,-1269 523,-1913 -1530,-1216 -2566,-3097 -3565,-4911 -521,-945 -1031,-1871 -1587,-2658 -31,2563 -1504,3988 -3026,5459 -1224,1184 -2483,2401 -2936,4306 0,125 -3,246 -8,363 0,7 0,14 -1,21 -18,418 -66,780 -136,1093 -145,648 -392,1097 -689,1388l-1 0c-324,317 -704,449 -1086,450 -128,0 -255,-14 -378,-42 -1113,-250 -3443,-5 -5373,198 -1207,127 -2262,238 -2821,205 -406,27 -1130,-243 -1555,-640 -176,-165 -312,-355 -375,-565 -72,-241 -50,-492 107,-739 237,-373 825,-733 1973,-998 521,-221 1085,-393 1668,-570 1809,-550 3818,-1161 5210,-3651l7 -12c1890,-3080 3230,-6381 4571,-9683 669,-1648 1338,-3297 2092,-4951l-1 0c41,-96 157,-213 329,-333 -1303,-1166 -1039,-3614 -779,-6015 132,-1221 263,-2430 177,-3399 -268,-758 -399,-1564 -317,-2315 64,-590 258,-1146 616,-1619 -64,-70 -129,-138 -193,-205 -22,-23 -41,-48 -56,-75 -467,-742 -797,-1741 -826,-2707 -23,-763 139,-1510 563,-2112 -147,-240 -281,-495 -401,-760 -582,-1291 -844,-2870 -674,-4320 174,-1484 799,-2841 1995,-3645 187,-126 386,-237 597,-332 1192,-537 2341,-611 3424,-286 1117,336 2151,1097 3077,2211 398,479 829,1019 1037,1601 229,638 198,1300 -382,1942 -474,816 -439,1755 -405,2670 29,784 58,1553 -201,2284 -16,44 -39,84 -69,117 -332,408 -714,687 -1118,875 -295,137 -601,226 -907,281 73,847 363,1370 620,1833 262,471 495,891 509,1482 881,-1026 2091,-2339 4656,-3125 -860,-59 -1733,-125 -2626,-196 -194,-15 -340,-185 -324,-380 2,-31 9,-61 19,-89l3472 -13470c18,-86 67,-165 145,-218 945,-656 2343,-966 3932,-840 1356,107 2861,531 4346,1327 2228,-2552 3920,-2031 5612,-1509 332,102 664,205 1005,280 225,49 449,86 673,100 215,14 433,8 652,-25 63,-14 132,-11 197,13 86,31 152,92 191,167 114,17 228,30 342,38 215,14 433,8 652,-25 63,-14 132,-11 197,13 174,64 268,250 218,426 71,6 141,10 212,12 170,4 343,-5 518,-32 63,-14 131,-11 197,13 183,67 277,270 210,453 -794,2167 -1482,4314 -2076,6452 -594,2137 -1097,4276 -1521,6429l-1 0c-26,133 -129,245 -270,276 -44,10 -87,13 -128,12 -867,176 -1710,325 -2534,450 165,57 328,119 487,186 870,368 1653,894 2202,1557 568,686 888,1515 803,2464 -44,495 -199,1019 -488,1567 -6,13 -12,25 -19,37l-6 10c-117,217 -254,437 -414,661l-17 26c387,3289 89,5927 -233,8762 -403,3554 -841,7421 26,13283 66,254 124,497 173,731 497,2349 256,3998 -321,5122 -597,1163 -1550,1764 -2435,1995 -60,16 -117,29 -170,40l-6 1c-1929,435 -3334,84 -4416,-627 -389,-255 -732,-555 -1041,-880 -846,533 -1970,748 -3083,724 -1154,-25 -2309,-310 -3133,-766 -188,464 -360,936 -509,1420 115,243 209,469 286,682 60,135 114,286 162,456zm-802 -163c-108,-243 -237,-398 -382,-495 -207,-139 -476,-180 -774,-199 -194,-11 -343,-178 -331,-373 11,-194 178,-343 373,-331 286,18 559,55 814,155 442,-1414 1069,-2716 1696,-4017 1276,-2650 2553,-5300 2159,-8830 -21,-194 118,-368 312,-389 194,-21 368,118 389,312 178,1596 38,3012 -284,4323 449,765 803,1696 1157,2628 368,967 735,1933 1189,2660 566,907 1239,1872 2190,2497 934,614 2164,913 3876,527 5,-1 10,-2 15,-4 48,-10 94,-21 137,-32 719,-188 1495,-680 1985,-1634 511,-994 717,-2487 258,-4658 -48,-229 -103,-462 -165,-699 -6,-19 -11,-40 -14,-61 -882,-5957 -438,-9875 -30,-13475 290,-2557 561,-4951 314,-7803 -1781,2383 -4028,4231 -6274,6080 -1333,1097 -2666,2194 -3895,3401 -230,306 -485,539 -751,710l43 4c562,51 859,264 1260,550 33,24 67,48 173,122 1055,734 2082,1687 3091,2781 1001,1086 1981,2309 2949,3593 117,156 87,377 -69,494 -156,117 -377,87 -494,-69 -957,-1270 -1923,-2476 -2905,-3541 -974,-1056 -1964,-1975 -2975,-2678 -17,-12 -100,-71 -179,-127 -313,-223 -545,-389 -915,-423 -522,-48 -1236,-106 -1857,-36 -531,60 -984,210 -1116,545 -3,7 -6,14 -9,20l0 0c-1524,3272 -2353,6767 -3182,10262 -415,1750 -830,3500 -1344,5259 -2,6 -4,12 -6,18l0 0c-791,2268 -1766,3060 -2885,3969 -353,287 -2228,1720 -2328,2006 -30,86 -6,160 57,223 115,116 323,213 586,291 948,281 2439,259 3223,7 1478,-1041 2284,-1152 3091,-1264 366,-51 733,-101 1171,-258 4,-2 8,-3 13,-4 371,-123 688,-320 796,-686 91,-308 62,-741 -154,-1350zm-16356 -3528c-174,-88 -244,-300 -156,-473 88,-174 300,-244 473,-156 65,33 136,66 205,98 200,93 382,176 533,297 606,-1692 1777,-2824 2920,-3929 1731,-1674 3393,-3281 2595,-6793 -43,-190 77,-378 266,-421 190,-43 378,77 421,266 59,258 105,506 141,746 867,974 1572,2254 2296,3569 909,1651 1850,3359 3139,4493 210,-843 412,-1693 614,-2543 507,-2138 1014,-4277 1681,-6372 -970,-1072 -1996,-2039 -3022,-3006 -986,-929 -1971,-1857 -2911,-2880 -70,-76 -109,-121 -145,-161 -159,-180 -226,-257 -521,-363 -567,-204 -1190,-204 -1741,-110 -767,131 -1350,395 -1410,533l-4 7c-731,1605 -1406,3268 -2081,4931 -1350,3326 -2701,6652 -4623,9785l0 0c-1530,2728 -3678,3382 -5614,3970 -569,173 -1119,340 -1623,557l-27 12 -33 8c-960,219 -1417,463 -1565,697 -36,56 -41,110 -26,159 24,81 90,167 179,250 304,284 791,479 1030,451l32 -4 33 2c493,35 1534,-75 2728,-200 1981,-208 4372,-460 5599,-184 75,17 150,26 223,26 206,0 413,-74 594,-251l-1 -1c207,-203 384,-536 496,-1037 61,-273 103,-593 120,-964 -23,-638 -263,-749 -588,-899 -70,-32 -143,-66 -227,-109zm30048 -2411c-23,-120 55,-235 174,-259 120,-23 235,55 259,174 155,788 81,1433 -128,1959 -261,658 -731,1123 -1231,1446 -102,66 -238,37 -305,-65 -66,-102 -37,-238 65,-305 433,-281 839,-680 1062,-1239 179,-452 241,-1014 104,-1713zm-13821 -15631l256 3225c64,-143 128,-285 195,-427l0 0c208,-503 684,-770 1260,-899 -37,-24 -74,-49 -109,-75 -213,-157 -390,-355 -515,-581 -373,-404 -735,-820 -1087,-1244zm-339 4658l-447 -5636c-854,-1096 -1666,-2236 -2481,-3382 -279,-392 -558,-785 -840,-1176 -702,535 -1409,1890 -2056,3128 -448,857 -868,1662 -1276,2166 453,165 556,282 793,552 46,52 97,110 134,150 925,1007 1900,1926 2875,2844 944,890 1889,1780 2792,2751 159,-468 327,-934 506,-1397zm-7215 -6759c-50,188 -244,300 -432,250 -188,-50 -300,-244 -250,-432 521,-1924 96,-3199 -323,-4456 -202,-606 -403,-1207 -509,-1877 -59,25 -120,49 -185,71 -184,64 -385,-33 -449,-217 -64,-184 33,-385 217,-449 350,-122 577,-291 728,-469 129,-153 206,-318 257,-466 -924,-601 -1624,-1420 -2299,-2209 -64,-75 -129,-151 -193,-225 -224,340 -349,733 -394,1151 -71,654 50,1368 294,2043l15 41 4 46c101,1051 -35,2311 -172,3584 -255,2358 -515,4764 769,5581 274,-109 587,-201 919,-258 416,-71 870,-96 1326,-39l-4 -5c397,-288 900,-1250 1447,-2297 683,-1308 1431,-2740 2266,-3374 -703,-965 -1425,-1918 -2193,-2834l-1010 1901c-34,65 -86,114 -146,146 445,1336 881,2704 315,4793zm-857 -6924c1,6 2,11 2,17 48,440 146,852 264,1255l937 -1765 -9 -10c-233,-77 -453,-166 -662,-267 -74,182 -179,379 -341,570 -57,68 -121,134 -193,199zm10451 -6234c-53,63 -128,107 -215,121 -3844,608 -5281,2290 -6296,3477 -48,56 -95,111 -148,173 832,893 1747,1679 2676,2420 25,-14 54,-31 82,-47 464,-266 928,-533 1485,-383 421,113 652,464 768,892 123,455 110,1016 67,1395 1131,881 2201,1775 3099,2807 787,-701 1464,-1689 2139,-2671 1401,-2041 2788,-4062 5263,-3881 194,14 341,182 327,377 -14,194 -182,341 -377,327 -2073,-152 -3346,1702 -4631,3574 -704,1025 -1411,2055 -2274,2818 69,90 137,181 204,273 114,158 78,378 -80,491 -158,114 -378,78 -491,-80 -1167,-1614 -2832,-2888 -4563,-4211 -1587,-1213 -3227,-2468 -4627,-4085l0 0c-69,-80 -101,-190 -79,-301 144,-704 -94,-1133 -372,-1634 -325,-585 -696,-1254 -725,-2450 -1,-14 -1,-28 -1,-42 -1,-101 3,-188 8,-270 6,-106 11,-201 0,-246 -13,-54 -1,93 -77,112 -230,55 -207,427 -185,800 22,363 43,726 -103,1035 -21,52 -55,100 -101,139 -149,125 -372,105 -497,-44 -281,-334 -656,-874 -1049,-1441 -591,-850 -1226,-1765 -1452,-1986 -433,340 -825,201 -1249,28 -308,461 -425,1043 -407,1646 25,832 307,1692 708,2335 299,311 583,643 871,981 909,1064 1867,2186 3350,2643l0 0c60,18 116,53 160,103 1489,1685 2780,3499 4060,5298 1381,1940 2749,3863 4326,5564l0 0c22,23 40,50 56,80 75,146 190,277 334,383 195,144 440,239 704,263 269,24 559,-25 841,-169 252,-129 498,-335 722,-636 12,-17 26,-34 42,-49 1252,-1231 2606,-2346 3961,-3461 2755,-2267 4639,-3894 6758,-6813 142,-215 280,-435 414,-659 1,-2 3,-5 4,-7 243,-461 373,-895 409,-1299 67,-745 -190,-1403 -646,-1953 -475,-573 -1163,-1033 -1931,-1358 -784,-331 -1646,-522 -2452,-550 -1592,165 -3127,244 -4648,261 -1392,16 -2767,-20 -4159,-88zm-6585 -6835c44,113 -12,241 -125,286 -113,44 -241,-12 -286,-125 -76,-195 -171,-422 -315,-536 -121,-96 -306,-113 -607,53 -121,67 -218,167 -291,286 -107,173 -165,385 -174,595 -9,207 30,408 116,563 47,85 108,155 182,201 308,190 369,430 431,670 41,159 81,318 254,419 10,3 18,5 24,6 13,1 24,-1 31,-6 13,-9 25,-26 35,-53 9,-24 16,-51 19,-81 12,-121 120,-209 241,-198 121,12 209,120 198,241 -7,74 -23,142 -47,200 -43,110 -113,197 -201,256 -93,62 -202,90 -320,79 -52,-5 -104,-18 -154,-37l-11 -4 -14 -8c-353,-194 -418,-450 -484,-705 -40,-155 -79,-309 -234,-405 -143,-88 -255,-214 -338,-363 -125,-225 -181,-508 -169,-793 12,-282 92,-570 240,-809 112,-181 263,-336 453,-441 495,-274 840,-213 1093,-12 231,184 354,474 451,721zm-1465 5792c207,-45 412,-111 610,-203 303,-141 589,-347 839,-643 194,-594 169,-1275 143,-1968 -38,-1024 -77,-2073 513,-3071 14,-27 32,-53 54,-76 384,-414 406,-841 259,-1253 -171,-478 -556,-959 -913,-1388 -836,-1007 -1757,-1690 -2737,-1985 -920,-276 -1904,-211 -2932,253 -178,80 -343,172 -495,274 -1005,676 -1534,1848 -1685,3140 -156,1326 84,2770 616,3950 126,279 267,542 422,783 31,12 62,25 93,38 266,110 508,209 699,5 107,-115 274,-143 409,-79 502,202 1261,1293 1964,2305 159,228 314,452 460,658 -36,-635 -35,-1249 732,-1432 611,-146 840,43 927,413 21,89 26,181 24,277zm19561 -1070c239,53 453,100 681,99 414,-2071 905,-4140 1483,-6218 554,-1995 1187,-3989 1906,-5993 -85,0 -170,-3 -254,-8 -145,-9 -287,-25 -428,-47 -732,2028 -1371,4039 -1928,6043 -566,2036 -1049,4074 -1461,6124zm2842 -5931c-563,2024 -1044,4050 -1453,6087 181,56 336,132 468,203 408,-2018 888,-4034 1451,-6059 554,-1995 1187,-3989 1906,-5993 -31,0 -62,0 -92,-1 -150,-4 -297,-15 -441,-33 -695,1945 -1305,3874 -1839,5796zm-18381 7073c2351,181 4569,325 6780,353 -1554,-828 -2927,-1172 -4087,-1172 -1104,0 -2012,315 -2694,819zm18227 -13446c-85,0 -170,-3 -254,-8 -267,-17 -525,-58 -778,-114 -355,-78 -709,-187 -1063,-296 -1502,-463 -3005,-926 -5002,1451l-2993 11265c1283,-1014 2817,-689 4351,-363 340,72 680,144 1001,198 280,47 555,81 824,94 176,8 350,7 523,-6 415,-2074 906,-4146 1485,-6228 554,-1995 1187,-3989 1906,-5993zm-11060 13206l3232 -12165c-1394,-748 -2804,-1146 -4072,-1247 -1366,-108 -2557,129 -3370,645l-3169 12294c768,-505 1746,-813 2906,-813 1280,0 2785,377 4473,1286zm-6522 7873c282,219 565,435 845,650 95,73 190,145 284,217 1,-232 -18,-480 -76,-694 -54,-200 -139,-357 -269,-392 -231,-62 -504,63 -785,219zm2613 27120c726,424 1793,692 2871,715 945,21 1889,-147 2601,-561 -334,-421 -626,-863 -894,-1292 -491,-787 -870,-1784 -1250,-2781 -250,-657 -500,-1315 -776,-1896 -439,1368 -1051,2638 -1662,3908 -304,632 -609,1264 -890,1907z"/></g><text x="0" y="60015" fill="#000000" font-size="5px" font-weight="bold" font-family="'Helvetica Neue', Helvetica, Arial-Unicode, Arial, Sans-serif">Created by Olena Panasovska</text><text x="0" y="60020" fill="#000000" font-size="5px" font-weight="bold" font-family="'Helvetica Neue', Helvetica, Arial-Unicode, Arial, Sans-serif">from the Noun Project</text></svg>