<svg xmlns="http://www.w3.org/2000/svg" xmlns:xlink="http://www.w3.org/1999/xlink" version="1.1" x="0px" y="0px" viewBox="0 0 25 31.25" enable-background="new 0 0 25 25" xml:space="preserve"><style type="text/css">
   
    .str1 {stroke:hsla(0, 0%, 100%, 0.45);stroke-width:0.54488}
    .str0 {stroke:hsla(0, 0%, 100%, 0.45);stroke-width:0.54488;stroke-linecap:round;stroke-linejoin:round}
    .fil0 {fill:none}
    </style>
    
    <g><g><path class="fil0 str1" d="M20,21.5H7c-0.827,0-1.5-0.673-1.5-1.5s0.673-1.5,1.5-1.5h10c1.378,0,2.5-1.121,2.5-2.5V5c0-1.379-1.122-2.5-2.5-2.5H7    C5.622,2.5,4.5,3.621,4.5,5v15c0,1.379,1.122,2.5,2.5,2.5h13c0.276,0,0.5-0.224,0.5-0.5S20.276,21.5,20,21.5z M5.5,5    c0-0.827,0.673-1.5,1.5-1.5h10c0.827,0,1.5,0.673,1.5,1.5v11c0,0.827-0.673,1.5-1.5,1.5H7c-0.562,0-1.082,0.187-1.5,0.501V5z"/><path class="fil0 str0" d="M10,11.5c0.509,0,0.981-0.154,1.376-0.416l2.77,2.77C14.244,13.951,14.372,14,14.5,14s0.256-0.049,0.354-0.146    c0.195-0.195,0.195-0.512,0-0.707l-2.77-2.77C12.346,9.981,12.5,9.509,12.5,9c0-1.379-1.122-2.5-2.5-2.5S7.5,7.621,7.5,9    S8.622,11.5,10,11.5z M10,7.5c0.827,0,1.5,0.673,1.5,1.5s-0.673,1.5-1.5,1.5S8.5,9.827,8.5,9S9.173,7.5,10,7.5z"/></g></g><text x="0" y="40" fill="hsla(0, 0%, 100%, 0.45)" font-size=".8px" font-weight="bold" font-family="'Helvetica Neue', Helvetica, Arial-Unicode, Arial, Sans-serif">Created by Ralf Schmitzer</text><text x="0" y="45" fill="hsla(0, 0%, 100%, 0.45)" font-size=".8px" font-weight="bold" font-family="'Helvetica Neue', Helvetica, Arial-Unicode, Arial, Sans-serif">from the Noun Project</text></svg>