<svg xmlns="http://www.w3.org/2000/svg" xmlns:xlink="http://www.w3.org/1999/xlink" xml:space="preserve" version="1.1" style="shape-rendering:geometricPrecision;text-rendering:geometricPrecision;image-rendering:optimizeQuality;" viewBox="0 0 333 416.25" x="0px" y="0px" fill-rule="evenodd" clip-rule="evenodd"><defs><style type="text/css">
   
    .str1 {stroke:hsla(0, 0%, 100%, 0.45);stroke-width:6.94488}
    .str0 {stroke:hsla(0, 0%, 100%, 0.45);stroke-width:6.94488;stroke-linecap:round;stroke-linejoin:round}
    .fil0 {fill:none}
   
  </style></defs><g><path class="fil0 str0" d="M-1827 -501c0,0 19,25 61,-8 0,0 36,16 43,50 0,4 19,11 11,-13 0,0 -12,-34 -38,-45 0,0 14,-15 14,-28 0,0 49,-6 52,-25 2,-21 -41,34 -71,-5 -37,-15 -67,46 -33,25 0,0 9,-18 27,-8 0,0 -19,54 -52,50 -6,-1 -15,-8 -14,7z"/><circle class="fil0 str0" cx="-1727" cy="-591" r="18"/><line class="fil0 str0" x1="-1834" y1="-593" x2="-1762" y2="-593"/><line class="fil0 str0" x1="-1894" y1="-563" x2="-1822" y2="-563"/><line class="fil0 str0" x1="-1871" y1="-527" x2="-1799" y2="-527"/><line class="fil0 str0" x1="-1902" y1="-488" x2="-1830" y2="-488"/><path class="fil0 str0" d="M139 196l-59 41c-5,4 -35,7 -24,-21l59 -51c0,0 13,-47 29,-46l64 0c0,0 16,6 27,46l58 52c0,0 12,28 -19,24l-59 -45 0 17c19,20 91,76 39,95l-109 0c-5,0 -34,-26 -1,-47l48 0c0,0 3,-11 -11,-11 -14,-1 -41,0 -41,0 0,0 -40,21 -15,58l-26 0c-52,-18 21,-76 40,-96l0 -16z"/><circle class="fil0 str1" cx="177" cy="65" r="41"/></g></svg>