<svg xmlns="http://www.w3.org/2000/svg" xmlns:xlink="http://www.w3.org/1999/xlink" version="1.1" x="0px" y="0px" viewBox="0 0 96 120" enable-background="new 0 0 96 96" xml:space="preserve"><style type="text/css">
   
    .str1 {stroke:hsla(0, 0%, 100%, 0.45);stroke-width:1.94488}
    .str0 {stroke:hsla(0, 0%, 100%, 0.45);stroke-width:1.94488;stroke-linecap:round;stroke-linejoin:round}
    .fil0 {fill:none}
    </style><path  class="fil0 str1" d="M33.449,84.667l0.229,2.833h52.09v-79H33.676l-0.229,2.833l13.723,2.222v68.89L33.449,84.667z M47.33,12.568l-12.813-2.074  l0.08-0.994h50.17v77H34.6l-0.08-0.994l12.81-2.074c0.487-0.078,0.841-0.493,0.841-0.987v-68.89  C48.17,13.061,47.816,12.646,47.33,12.568z"/><path class="fil0 str1" d="M10.232,51.223v36.189l35.938-5.818V14.406L10.232,8.587v36.185h15.707l-0.055-5.066l12.525,8.32l-12.471,8.232v-5.035  H10.232z M26.445,57.119l12.466-8.229c0.338-0.171,0.548-0.513,0.548-0.893c0-0.38-0.212-0.724-0.502-0.866l-12.57-8.289  c-0.157-0.08-0.325-0.096-0.439-0.096c-0.116,0-0.341,0.018-0.532,0.139c-0.298,0.184-0.476,0.502-0.476,0.852v4.035H11.232V9.762  l33.938,5.496v65.485l-33.938,5.495V52.223h13.707v4.035c0,0.35,0.177,0.668,0.469,0.847C25.686,57.278,26.011,57.338,26.445,57.119  z"/></svg>