<svg xmlns="http://www.w3.org/2000/svg" xmlns:xlink="http://www.w3.org/1999/xlink" version="1.1" x="0px" y="0px" viewBox="0 0 100 125" enable-background="new 0 0 100 100" xml:space="preserve"><style type="text/css">
   
    .str1 {stroke:hsla(0, 0%, 100%, 0.45);stroke-width:1.94488}
    .str0 {stroke:hsla(0, 0%, 100%, 0.45);stroke-width:1.94488;stroke-linecap:round;stroke-linejoin:round}
    .fil0 {fill:none}
    </style><path class="fil0 str1" d="M94.851,81.612L80.593,46.48c-0.177-0.435-0.499-0.796-0.912-1.02l-5.788-3.136L61.146,22.977  c-1.667-2.295-4.662-3.134-7.326-2.022l-6.343,2.838c-2.118-4.817-6.919-8.195-12.51-8.195c-7.545,0-13.683,6.138-13.683,13.683  c0,3.323,1.205,6.358,3.183,8.728l-5.569,2.581c-0.477,0.221-0.85,0.62-1.039,1.11L5.136,74.722  c-0.402,1.044,0.118,2.217,1.163,2.619c0.24,0.092,0.486,0.136,0.728,0.136c0.814,0,1.582-0.494,1.892-1.298l12.427-32.256  l7.897-3.66L13.605,81.659c-0.395,1.048,0.133,2.217,1.18,2.613c0.236,0.088,0.478,0.131,0.716,0.131  c0.819,0,1.192-0.499,1.499-1.31L34,37.035c0-0.001,0-0.002,0-0.002l1.521-2.969c0.198-0.525,0.808-0.949,1.374-1.186l18.433-8.201  c0.878-0.368,1.933-0.084,2.437,0.608l12.998,19.696c0.183,0.279,0.447,0.508,0.74,0.667l5.603,3.032l13.988,34.46  c0.42,1.035,1.597,1.537,2.642,1.115C94.771,83.832,95.272,82.65,94.851,81.612z M35.488,29.156  c-1.545,0.643-2.769,1.909-3.361,3.474l-0.837,2.216l-2.975,1.379c-1.831-1.754-2.978-4.215-2.978-6.944  c0-5.309,4.32-9.629,9.63-9.629c3.945,0,7.334,2.389,8.82,5.792L35.488,29.156z"/></svg>