<svg xmlns="http://www.w3.org/2000/svg" xmlns:xlink="http://www.w3.org/1999/xlink" version="1.1" x="0px" y="0px" viewBox="0 0 100 125" style="enable-background:new 0 0 100 100;" xml:space="preserve"><style type="text/css">
   
    .str1 {stroke:hsla(0, 0%, 100%, 0.45);stroke-width:1.94488}
    .str0 {stroke:hsla(0, 0%, 100%, 0.45);stroke-width:1.94488;stroke-linecap:round;stroke-linejoin:round}
    .fil0 {fill:none}
    </style><circle class="fil0 str1" cx="6" cy="13.2" r="0.8"/><circle cx="12.1" cy="13.2" r="0.8"/><circle class="fil0 str1" cx="9.1" cy="13.2" r="0.8"/><g><path class="fil0 str1" d="M51.2,57.7l-4.9-3.5l-4.9,3.5l1.8-5.7l-4.8-3.5l6,0l1.9-5.7l1.9,5.7l6,0l-4.8,3.5L51.2,57.7z M41.9,49.5l2.8,2l-1,3.2   l2.8-2l2.8,2l-1-3.2l2.8-2l-3.4,0l-1.1-3.2l-1.1,3.2L41.9,49.5z"/></g><g><path class="fil0 str1" d="M46.4,31c3.5,0,6.8,0.9,9.6,2.6h8.4V22.1H9.6v11.4h27.2C39.6,31.9,42.9,31,46.4,31z"/></g><g><path class="fil0 str1" d="M30.6,61.6h-21v1.5h22.2C31.4,62.6,31,62.1,30.6,61.6z"/></g><path d="M64.3,43.1v-7.3h-5.2C61.4,37.8,63.2,40.3,64.3,43.1z"/><path class="fil0 str1" d="M27,50.3c0-5.8,2.6-11,6.6-14.5h-24v22.1h18.9C27.5,55.5,27,53,27,50.3z"/><rect class="fil0 str1" x="9.6" y="66" width="24.8" height="1.5"/><rect x="9.6" y="70.5" width="24.8" height="1.5"/><g><path class="fil0 str1" d="M59.1,66h-1.4c-0.8,0.6-1.6,1.1-2.5,1.5h5.3L59.1,66z"/></g><g><path class="fil0 str1" d="M62.5,71.8c-0.4-0.4-0.7-0.9-0.8-1.4H39.5V72h23.2L62.5,71.8z"/></g><g><polygon points="75.7,73.9 77.4,73.9 77.4,72.4 74.2,72.4  "/></g><path class="fil0 str1" d="M76.9,76.7l-9.6-9.6c-0.5-0.5-1.1-0.7-1.8-0.7c-0.1,0-0.3,0-0.4,0c-0.1,0-0.1,0-0.2,0c0,0-0.1,0-0.1,0c0,0,0,0-0.1,0  c-0.1,0-0.3,0.1-0.4,0.2l0,0l-3.5-3.5c-0.5,0.5-1,1.1-1.5,1.5l3.5,3.5c0,0,0,0,0,0c-0.1,0.1-0.1,0.3-0.2,0.4c0,0,0,0.1,0,0.1  c0,0.1,0,0.1,0,0.2c0,0.1,0,0.3,0,0.4c0,0.1,0,0.1,0,0.2c0,0.6,0.3,1.2,0.7,1.6l9.6,9.6c0.9,0.9,2.6,0.9,3.5,0l0.5-0.5  c0.5-0.5,0.7-1.1,0.7-1.8S77.4,77.2,76.9,76.7z"/><path class="fil0 str1" d="M46.4,32.1c-10.1,0-18.3,8.2-18.3,18.3c0,10.1,8.2,18.3,18.3,18.3c10.1,0,18.3-8.2,18.3-18.3C64.6,40.3,56.4,32.1,46.4,32.1  z M46.4,64.4c-7.8,0-14.1-6.3-14.1-14.1s6.3-14.1,14.1-14.1c7.8,0,14.1,6.3,14.1,14.1S54.1,64.4,46.4,64.4z"/><path class="fil0 str1" d="M39.9,61.6c1.3,0.7,2.7,1.3,4.2,1.5h4.4c1.5-0.3,2.9-0.8,4.2-1.5H39.9z"/><path class="fil0 str1" d="M61.6,62.3l0.8,0.8h1.9v-1.5h-2.2C62,61.8,61.8,62.1,61.6,62.3C61.6,62.3,61.6,62.3,61.6,62.3z"/><path class="fil0 str1" d="M85,21.7v-6.3h-13V8.9H2v8.6v60.8h13v6.4h13v6.3H98V21.7H85z M71.9,16.3H84v6.6H71.9V16.3z M16.2,9.9h54.8v6.6H16.2V9.9z   M3,9.9h12.2v6.6H3V9.9z M16,83.7v-5.4h53l-1-1H3V17.5h68v51.7l1,1v-0.7h5.5v-1.5h-5.5v-3.7h5.5V42.2h-5.5v-2.3h5.5V28.5h-5.5v-4.6  H84v59.9H16z M97,90.1h-68v-5.4l61.4,0v-1.5H85v-2.9h5.5v-1.5H85v-2.9h5.5v-1.5H85v-3.7h5.5V48.5H85v-2.3h5.5V34.8H85v-4.6H97V90.1z   M97,29.3H85v-6.6H97V29.3z"/></svg>