<svg xmlns="http://www.w3.org/2000/svg" xmlns:xlink="http://www.w3.org/1999/xlink" version="1.1" x="0px" y="0px" viewBox="0 0 100 125" enable-background="new 0 0 100 100" xml:space="preserve"><style type="text/css">
   
    .str1 {stroke:hsla(0, 0%, 100%, 0.45);stroke-width:1.04488}
    .str0 {stroke:hsla(0, 0%, 100%, 0.45);stroke-width:1.04488;stroke-linecap:round;stroke-linejoin:round}
    .fil0 {fill:none}
    </style><path class="fil0 str1" d="M48.75,17.0410156c-4.265625,0-7.7363281,3.4707031-7.7363281,7.7363281S44.484375,32.5136719,48.75,32.5136719  s7.7363281-3.4707031,7.7363281-7.7363281S53.015625,17.0410156,48.75,17.0410156z M48.75,30.5136719  c-3.1630859,0-5.7363281-2.5732422-5.7363281-5.7363281S45.5869141,19.0410156,48.75,19.0410156  s5.7363281,2.5732422,5.7363281,5.7363281S51.9130859,30.5136719,48.75,30.5136719z"/><path class="fil0 str1" d="M48.75,33.875c-4.1464844,0-7.5205078,3.3735352-7.5205078,7.5205078v13.2426758  c0,4.1469727,3.3740234,7.5205078,7.5205078,7.5205078s7.5205078-3.3735352,7.5205078-7.5205078V41.3955078  C56.2705078,37.2485352,52.8964844,33.875,48.75,33.875z M54.2705078,54.6381836  c0,3.0439453-2.4765625,5.5205078-5.5205078,5.5205078s-5.5205078-2.4765625-5.5205078-5.5205078V41.3955078  c0-3.0439453,2.4765625-5.5205078,5.5205078-5.5205078s5.5205078,2.4765625,5.5205078,5.5205078V54.6381836z"/><path class="fil0 str1" d="M48.8330078,63.8608398h-0.1650391c-2.8642578,0-5.1953125,2.3305664-5.1953125,5.1948242v14.4570313  c0,2.8642578,2.3310547,5.1948242,5.1953125,5.1948242h0.1650391c2.8642578,0,5.1943359-2.3305664,5.1943359-5.1948242V69.0556641  C54.0273438,66.1914063,51.6972656,63.8608398,48.8330078,63.8608398z M52.0273438,83.5126953  c0,1.7617188-1.4326172,3.1948242-3.1943359,3.1948242h-0.1650391c-1.7617188,0-3.1953125-1.4331055-3.1953125-3.1948242V69.0556641  c0-1.7617188,1.4335938-3.1948242,3.1953125-3.1948242h0.1650391c1.7617188,0,3.1943359,1.4331055,3.1943359,3.1948242V83.5126953z"/><path class="fil0 str1" d="M74.0019531,34.1123047H62.3652344c-2.2675781,0-4.1123047,1.8447266-4.1123047,4.1123047v0.140625  c0,2.2675781,1.8447266,4.1123047,4.1123047,4.1123047h11.6367188c2.2675781,0,4.1123047-1.8447266,4.1123047-4.1123047v-0.140625  C78.1142578,35.9570313,76.2695313,34.1123047,74.0019531,34.1123047z M76.1142578,38.3652344  c0,1.1645508-0.9472656,2.1123047-2.1123047,2.1123047H62.3652344c-1.1650391,0-2.1123047-0.9477539-2.1123047-2.1123047v-0.140625  c0-1.1645508,0.9472656-2.1123047,2.1123047-2.1123047h11.6367188c1.1650391,0,2.1123047,0.9477539,2.1123047,2.1123047V38.3652344z  "/><path class="fil0 str1" d="M90.1943359,36.3037109l-8.0986328-2.1245117c-0.6230469-0.1630859-1.2685547-0.0307617-1.7763672,0.3623047  c-0.5078125,0.3935547-0.7978516,0.987793-0.7949219,1.6293945l0.015625,4.309082  c0.0029297,0.6420898,0.296875,1.2333984,0.8076172,1.6230469c0.3632813,0.2768555,0.7958984,0.4213867,1.2392578,0.4208984  c0.1796875,0,0.3603516-0.0234375,0.5390625-0.0717773l8.0830078-2.184082  c0.9101563-0.2456055,1.5195313-1.0439453,1.515625-1.9868164C91.7216797,37.3378906,91.1064453,36.5429688,90.1943359,36.3037109z   M81.5400391,40.472168l0.0039063-4.3496094c0.0117188-0.0087891,0.0214844-0.0112305,0.0292969-0.0112305  c0.0058594,0,0.0107422,0.0014648,0.0146484,0.0024414L89.6875,38.3374023L81.5400391,40.472168z"/><path class="fil0 str1" d="M35.6123047,34.1577148H23.9765625c-2.2675781,0-4.1123047,1.8447266-4.1123047,4.1123047v0.140625  c0,2.2675781,1.8447266,4.1123047,4.1123047,4.1123047h11.6357422c2.2675781,0,4.1123047-1.8447266,4.1123047-4.1123047v-0.140625  C39.7246094,36.0024414,37.8798828,34.1577148,35.6123047,34.1577148z M37.7246094,38.4106445  c0,1.1645508-0.9472656,2.1123047-2.1123047,2.1123047H23.9765625c-1.1650391,0-2.1123047-0.9477539-2.1123047-2.1123047v-0.140625  c0-1.1645508,0.9472656-2.1123047,2.1123047-2.1123047h11.6357422c1.1650391,0,2.1123047,0.9477539,2.1123047,2.1123047V38.4106445z  "/><path class="fil0 str1" d="M17.6308594,34.5322266c-0.5107422-0.3891602-1.1601563-0.5161133-1.7792969-0.3491211l-8.0820313,2.184082  C6.859375,36.612793,6.25,37.4116211,6.2529297,38.3549805c0.0029297,0.9428711,0.6181641,1.7373047,1.5302734,1.9765625  l8.0986328,2.1245117c0.1748047,0.0458984,0.3505859,0.0683594,0.5253906,0.0683594c0.4482422,0,0.8847656-0.1474609,1.25-0.4301758  c0.5087891-0.3930664,0.7988281-0.9868164,0.796875-1.6298828l-0.015625-4.309082  C18.4355469,35.5131836,18.1416016,34.9213867,17.6308594,34.5322266z M16.4335938,40.512207  c-0.0214844,0.0161133-0.0351563,0.0112305-0.0439453,0.0092773l-8.0986328-2.2236328l8.1474609-2.1347656L16.4335938,40.512207z"/></svg>