<svg xmlns="http://www.w3.org/2000/svg" xmlns:xlink="http://www.w3.org/1999/xlink" version="1.1" x="0px" y="0px" viewBox="0 0 64 80" style="enable-background:new 0 0 64 64;" xml:space="preserve"><style type="text/css">
   
    .str1 {stroke:hsla(0, 0%, 100%, 0.45);stroke-width:1.0488}
    .str0 {stroke:hsla(0, 0%, 100%, 0.45);stroke-width:1.0488;stroke-linecap:round;stroke-linejoin:round}
    .fil0 {fill:none}
    </style><path class="fil0 str1" d="M6,21h8c0.552,0,1-0.448,1-1c0-0.552-0.448-1-1-1H6c-0.552,0-1,0.448-1,1C5,20.552,5.448,21,6,21z"/><path class="fil0 str1" d="M10,18c1.572,0,2.958-0.79,3.874-2H15c0.811,0,1.565-0.317,2.107-0.874C17.684,14.566,18,13.811,18,13c0-1.654-1.346-3-3-3  h-2H5v2.667C5,15.612,7.239,18,10,18z M15,12.667V12c0.552,0,1,0.449,1,1c0,0.267-0.103,0.513-0.306,0.712  C15.513,13.898,15.267,14,15,14h-0.177C14.927,13.571,15,13.13,15,12.667z"/><path class="fil0 str1" d="M47.776,9.553c0.101-0.05,0.214-0.064,0.321-0.043l2.698,0.54L47,3l-2.903,5.39l2.001,2.001L47.776,9.553z"/><path class="fil0 str1" d="M51.411,11.192l-3.341-0.668l-1.847,0.923C46.152,11.483,46.076,11.5,46,11.5c-0.13,0-0.258-0.05-0.354-0.146L43.603,9.31  L40,16h14L51.411,11.192z"/><path class="fil0 str1" d="M60.993,48.879c-0.04-1.02-0.852-1.832-1.872-1.872c-1.134-0.045-2.316,0.133-3.487,0.508l4.777,5.058  C60.834,51.335,61.04,50.08,60.993,48.879z"/><path class="fil0 str1" d="M47.007,59.121c0.04,1.02,0.852,1.832,1.872,1.872c0.987,0.039,2.011-0.095,3.032-0.375l-4.529-4.529  C47.102,57.11,46.968,58.134,47.007,59.121z"/><path class="fil0 str1" d="M50.617,50.617c-1.325,1.325-2.283,2.846-2.884,4.409l5.241,5.241c1.563-0.6,3.085-1.559,4.409-2.884  c1.148-1.148,2.017-2.445,2.623-3.787l-5.388-5.705C53.2,48.498,51.826,49.407,50.617,50.617z M56.354,50.94l0.707,0.707l-1,1l1,1  l-0.707,0.707l-1-1l-2,2l1,1l-0.707,0.707l-1-1l-1,1l-0.707-0.707l1-1l-1-1l0.707-0.707l1,1l2-2l-1-1l0.707-0.707l1,1L56.354,50.94z  "/><path class="fil0 str1" d="M10.688,60.835L11,61V50.411l-0.312-0.165c-2.38-1.26-5.107-1.577-7.688-0.894v10.589  C5.581,59.258,8.308,59.575,10.688,60.835z"/><path class="fil0 str1" d="M20,59.941V49.352c-2.581-0.683-5.308-0.366-7.688,0.894L12,50.411V61l0.312-0.165C14.692,59.575,17.419,59.258,20,59.941z"/><path class="fil0 str1" d="M39,39c0-2.998-1.896-5.533-4.546-6.53C36.541,31.53,38,29.434,38,27c0-3.309-2.691-6-6-6s-6,2.691-6,6  c0,2.434,1.459,4.53,3.546,5.47C26.896,33.467,25,36.002,25,39v3h14V39z M28.033,27.329c1.169-0.672,2.519-1.065,3.967-1.065  s2.797,0.393,3.967,1.065C35.796,29.379,34.093,31,32,31S28.204,29.379,28.033,27.329z M34,33c0,1.105-0.895,2-2,2s-2-0.895-2-2  v-0.35c0.627,0.223,1.298,0.35,2,0.35s1.373-0.128,2-0.35V33z"/><rect class="fil0 str1" x="31" y="2" width="2" height="13"/><rect class="fil0 str1" x="50" y="31" width="12" height="2"/><rect class="fil0 str1" x="31" y="51" width="2" height="11"/><rect class="fil0 str1" x="2" y="31" width="12" height="2"/><path class="fil0 str1" d="M53,9.5c0.077,0,0.154,0.018,0.224,0.053l1.678,0.839l1.745-1.745L56.8,8.8L54,4l-3,5l0.286,0.5H53z"/><path class="fil0 str1" d="M55,11.5c-0.076,0-0.152-0.017-0.224-0.053L52.882,10.5h-1.025L55,16h6l-3.792-6.501l-1.854,1.854  C55.258,11.45,55.13,11.5,55,11.5z"/><path class="fil0 str1" d="M11.859,9h0.75c0-0.345,0.155-0.5,0.391-0.735c0.271-0.272,0.609-0.61,0.609-1.266c0-0.656-0.338-0.994-0.609-1.266  c-0.235-0.235-0.391-0.391-0.391-0.735c0-0.344,0.155-0.499,0.39-0.734c0.272-0.271,0.61-0.609,0.61-1.264h-0.75  c0,0.344-0.155,0.499-0.39,0.734c-0.272,0.271-0.61,0.609-0.61,1.264c0,0.656,0.338,0.994,0.609,1.266  c0.235,0.235,0.391,0.391,0.391,0.735s-0.155,0.5-0.391,0.735C12.197,8.006,11.859,8.344,11.859,9z"/><path class="fil0 str1" d="M7.859,9h0.75c0-0.345,0.155-0.5,0.391-0.735c0.271-0.272,0.609-0.61,0.609-1.266c0-0.656-0.338-0.994-0.609-1.266  C8.765,5.499,8.609,5.343,8.609,4.998c0-0.344,0.155-0.499,0.39-0.734C9.271,3.993,9.609,3.655,9.609,3h-0.75  c0,0.344-0.155,0.499-0.39,0.734c-0.272,0.271-0.61,0.609-0.61,1.264c0,0.656,0.338,0.994,0.609,1.266  c0.235,0.235,0.391,0.391,0.391,0.735S8.704,7.5,8.469,7.734C8.197,8.006,7.859,8.344,7.859,9z"/><path class="fil0 str1" d="M32,48c8.284,0,15-6.716,15-15c0-8.284-6.716-15-15-15s-15,6.716-15,15C17,41.284,23.716,48,32,48z M24,39  c0-2.753,1.399-5.186,3.522-6.626C25.983,31.089,25,29.158,25,27c0-3.86,3.141-7,7-7s7,3.14,7,7c0,2.158-0.983,4.089-2.522,5.374  C38.601,33.814,40,36.247,40,39v3c0,0.552-0.447,1-1,1H25c-0.553,0-1-0.448-1-1V39z"/></svg>